<svg width="580" height="707" viewBox="0 0 580 707" fill="none" xmlns="http://www.w3.org/2000/svg">
<mask id="mask0_1_2545" style="mask-type:alpha" maskUnits="userSpaceOnUse" x="0" y="0" width="580" height="707">
<rect width="580" height="707" fill="#D9D9D9"/>
</mask>
<g mask="url(#mask0_1_2545)">
<path fill-rule="evenodd" clip-rule="evenodd" d="M327.653 104.967C365.579 104.967 413.081 146.372 426.983 163.992C438.671 178.805 437.018 255.12 437.018 300.39C437.018 309.858 432.546 327.777 430.922 336.834C424.974 370.02 399.056 397.853 347.759 397.853C305.991 397.853 273.848 385.191 242.765 352.808C235.673 345.42 201.042 371.868 193.959 362.344C175.459 362.344 159.99 196.919 196.312 147.301C232.634 97.6831 289.727 104.967 327.653 104.967Z" fill="white"/>
<path fill-rule="evenodd" clip-rule="evenodd" d="M213.663 116.619C235.578 97.537 264.774 88.3573 294.23 89.0349C309.486 89.3865 324.688 92.1673 339.096 96.9297C346.303 99.3205 353.283 102.44 359.955 105.969C362.36 107.237 364.577 108.724 366.711 110.303L367.243 110.699H367.249C372.974 112.668 378.083 116.203 382.719 120.339C392.01 119.63 401.375 120.429 410.358 123.171C422.862 126.994 434.438 133.994 442.567 143.934C452.035 155.507 455.183 169.544 454.06 184.035L453.853 186.497C452.742 199.297 450.752 215.762 439.775 224.173C438.94 224.813 438.018 225.298 437.063 225.592C444.136 237.188 449.941 250.063 453.414 263.065C466.673 312.729 456.48 364.521 440.536 412.389C439.227 416.333 432.995 418.954 429.822 415.099C424.158 408.208 415.929 402.953 406.671 401.969C400.96 401.362 395.276 402.461 389.879 399.981C387.762 399.003 385.718 397.405 384.248 395.461C375.138 398.766 365.326 400.326 355.594 399.943C339.623 399.316 322.551 394.023 311.563 382.414C309.8 380.551 309.353 378.459 309.759 376.573C311.137 376.102 312.552 375.752 314.009 375.533C327.942 383.392 343.301 388.643 359.807 388.973C369.345 389.163 378.648 387.887 386.381 382.187C388.054 380.954 389.593 379.587 391.016 378.12C407.185 368.165 418.585 351.258 424.004 333.147C429.054 316.258 428.433 298.672 426.696 281.348L425.78 272.206C424.444 258.789 423.205 245.332 422.858 231.857L422.963 231.852C426.378 231.641 426.402 226.525 422.963 226.738C414.067 227.289 405.238 225.892 396.369 226.501C396.295 222.488 395.993 218.493 394.761 214.623C394.057 212.412 390.034 211.976 389.608 214.623C389.038 218.165 388.829 221.687 388.767 225.244C375.494 225.075 362.234 224.006 348.96 224.446C346.511 221.946 345.732 217.514 344.586 214.431C344.419 213.977 344.252 213.53 344.078 213.076C343.072 217.482 341.645 221.791 339.768 226.009L336.513 226.02C318.041 226.103 299.193 226.631 281.156 230.302C279.902 229.381 279.156 227.774 278.954 226.315C277.646 216.818 275.778 207.574 272.469 198.524L271.995 197.247C271.957 197.141 271.916 197.029 271.873 196.91C269.434 200.677 266.525 204.189 263.352 207.459C261.481 209.386 259.52 211.229 257.508 213.02C255.553 215.097 253.532 217.143 251.574 219.227C251.651 219.606 251.717 219.991 251.771 220.383C252.371 224.708 252.433 229.094 251.994 233.435C251.2 241.283 248.885 248.845 245.166 255.841L245.048 256.542C244.484 259.82 243.68 263.209 241.804 265.677C244.146 268.188 245.95 271.188 246.996 274.52C247.927 277.487 243.638 280.058 241.414 277.63C239.647 275.702 237.684 274.105 235.528 272.832C235.391 273.009 235.146 273.096 234.87 272.948C228.865 269.758 218.666 270.724 212.667 273.728C205.206 277.461 202.294 285.126 203.122 292.893C203.917 300.315 207.31 308.989 213.89 312.793C216.909 314.538 219.26 314.685 222.466 313.848C223.491 313.581 224.762 312.764 225.308 312.358L225.845 311.946C227.946 310.356 229.904 309.268 232.385 309.226C234.923 308.469 237.473 309.519 238.444 312.066L238.503 312.23C238.958 313.528 239.786 315.158 239.606 317.14C239.418 319.262 238.403 321.193 236.887 322.746C236.626 323.015 236.346 323.283 236.059 323.533C262.175 350.592 265.528 392.757 252.136 426.561C251.555 428.044 250.934 429.508 250.286 430.959C248.048 435.933 239.432 434.392 238.336 429.463C238.009 427.987 237.648 426.516 237.254 425.059C236.53 422.365 235.7 419.697 234.765 417.068L234.409 416.084C233.614 413.91 232.873 411.718 232.071 409.544L231.991 409.296C231.961 409.197 231.928 409.084 231.891 408.956L230.535 411.788L226.414 420.335C224.485 424.323 218.358 422.156 218.13 418.312L218.124 418.18C218.104 417.471 218.078 416.768 218.031 416.071C217.737 410.848 216.795 405.773 215.299 400.806L214.759 401.448C206.721 410.958 197.288 419.873 184.347 422.067C181.1 422.617 177.427 419.369 179.658 416.231C180.579 414.933 181.468 413.603 182.309 412.255C181.581 411.929 180.893 411.59 180.259 411.245C175.349 408.604 171.262 404.846 167.882 400.582C160.715 391.543 158.15 380.164 157.522 369.028C156.854 357.26 157.936 344.852 161.296 333.499C162.752 328.589 164.722 323.878 167 319.307C166.84 318.898 166.686 318.489 166.533 318.08C164.075 311.521 162.057 304.815 160.381 298.033C157.001 284.34 155.184 270.212 154.964 256.142C154.563 230.937 159.105 205.328 168.677 181.823C178.562 157.582 193.431 134.23 213.663 116.619ZM201.352 336.995C199.537 334.26 194.995 336.725 196.681 339.479L196.744 339.578C199.622 343.918 200.972 348.853 202.628 353.693C203.69 356.806 208.853 355.476 207.778 352.331L207.422 351.281C205.774 346.374 204.27 341.386 201.352 336.995ZM217.163 284.781L218.369 284.222C222.173 282.485 225.506 281.302 230 282.818C236.019 284.845 242.464 291.295 238.397 297.553C236.9 299.861 234.242 300.781 231.503 300.238C226.887 299.322 225.695 295.343 223.352 292.076L222.949 291.523C221.521 289.547 219.714 286.815 217.336 286.04C216.795 285.861 216.568 285.056 217.163 284.781ZM220.555 151.906L220.943 151.573C223.528 149.387 219.734 145.782 217.163 147.955C205.393 157.908 201.306 173.487 195.201 186.764C193.831 189.749 198.434 192.358 199.816 189.347C205.64 176.677 209.505 161.521 220.555 151.906ZM361.986 147.552C358.911 146.226 356.22 150.509 359.177 151.919L359.287 151.969C369.681 156.463 374.102 166.64 378.337 176.089C379.686 179.106 384.289 176.504 382.953 173.512L382.189 171.817C377.77 162.08 372.616 152.156 361.986 147.552ZM378.277 141.403C375.018 140.322 373.622 145.257 376.854 146.338C385.665 149.272 391.709 155.6 396.806 162.837C398.716 165.547 403.345 162.99 401.415 160.254C395.497 151.854 388.47 144.803 378.277 141.403Z" fill="black"/>
<path fill-rule="evenodd" clip-rule="evenodd" d="M664.634 508.652C655.097 509.549 645.559 510.444 636.021 511.34C590.342 514.68 544.68 521.655 499.351 525.842C498.222 524.084 496.013 524.373 494.672 525.595C490.149 525.216 485.079 521.907 480.982 525.349C480.849 525.331 480.716 525.31 480.581 525.298C473.286 511.897 468.244 497.604 463.349 483.292C460.225 474.492 456.023 465.974 448.256 460.066C435.001 451.261 404.631 433.404 389.067 434.155C388.809 431.488 387.51 428.739 385.377 426.963C390.078 419.293 371.281 414.288 369.955 415.177C370.805 389.551 358.21 367.296 330.437 362.193C305.556 357.231 270.166 356.397 256.785 381.283C255.314 381.124 240.278 381.049 238.823 381.205C236.561 378.464 211.72 404.444 221.901 413.489C130.879 452.025 79.1236 447.426 53.9301 555.76C50.5242 565.937 50.2761 577.074 46.6796 587.024C33.8843 615.618 23.506 646.066 20.9231 677.18C14.6849 678.71 13.9675 689.236 21.1932 690.759C23.9533 691.342 26.2614 692.137 28.2739 693.645C26.7006 719.142 33.1441 777.387 37.204 777.207C45.4821 802.422 82.407 809.538 108.549 800.677C104.042 808.791 108.549 813.893 108.549 818.228C202.613 821.634 305.463 819.672 399.501 824.343C411.53 824.18 424.182 827.171 436.047 825.449C443.283 823.789 443.295 812.901 435.955 811.555L468.025 804.888C467.308 804.629 481.244 795.758 491.777 779.18C501.581 760.635 494.909 738.25 499.351 718.078C534.047 715.362 569.316 714.201 603.632 708.578C608.311 721.976 628.566 705.952 635.004 699.507C634.996 699.497 634.988 699.487 634.98 699.477C638.096 698.661 640.594 695.866 640.678 692.557C642.863 689.57 643.322 685.358 641.226 682.471C650.83 629.433 665.472 575.28 670.764 521.744C672.634 521.348 674.396 520.563 675.89 519.353L675.769 519.238C678.3 516.538 678.792 511.877 674.573 509.582C671.17 507.73 668.328 508.305 664.634 508.652Z" fill="white"/>
<path fill-rule="evenodd" clip-rule="evenodd" d="M258.519 374.15C261.353 367.334 270.933 369.984 269.865 377.145C269.226 381.434 266.771 385.964 264.566 389.724C262.771 392.784 260.723 395.771 257.946 398.064C262.889 402.478 268.02 406.73 273.28 410.768C279.021 415.173 285.057 419.233 291.296 422.965C296.767 426.238 302.485 429.138 307.643 432.872C312.438 436.344 316.806 440.52 319.029 445.971C321.397 451.775 320.368 457.77 318.624 463.571L318.424 464.226C316.643 469.973 313.559 476.901 317.835 482.315C320.012 485.072 323.176 487.024 325.909 489.228C328.338 491.186 330.617 493.316 332.708 495.604C337.267 500.592 340.974 506.204 343.314 512.457L343.523 513.025C345.529 518.561 346.995 525.342 344.285 530.777C343.507 532.334 341 531.828 340.564 530.311C339.58 526.875 339.631 523.276 338.806 519.79C337.947 516.166 336.517 512.725 334.65 509.47C331.038 503.173 326.146 497.794 320.367 493.247L318.636 491.9C314.128 488.359 309.985 484.602 309.07 478.741C308.091 472.471 310.716 466.498 312.404 460.563C313.58 456.427 313.964 452.462 312.693 448.725C311.14 451.151 309.021 453.453 307.345 455.507C304.008 459.599 300.639 463.666 297.278 467.74C293.833 471.919 290.473 476.163 287.272 480.517C285.841 482.464 284.425 484.424 283.014 486.385C281.952 487.859 280.472 489.332 279.315 490.835C279.596 491.64 279.575 492.567 279.065 493.225C272.93 501.158 264.202 484.605 261.926 480.423C257.29 471.906 253.841 462.858 249.19 454.344C244.37 445.517 238.883 436.925 232.766 428.867C229.067 423.992 224.92 419.414 221.535 414.385C213.562 421.304 203.07 425.943 193.433 430.149C182.845 434.77 171.844 438.545 160.988 442.553L157.781 443.746C139.076 450.732 119.913 458.408 104.365 470.818C86.0947 485.401 75.2861 505.727 67.2394 526.775C57.9764 551.006 50.3131 575.891 43.1694 600.76C39.5138 613.484 36.0451 626.266 32.7842 639.089C29.9108 650.386 27.5289 661.795 24.2025 672.975C30.9487 672.747 38.6428 675.247 44.4024 675.968C70.6519 679.257 96.548 684.499 121.331 693.574C124.392 694.695 125.278 697.621 124.611 699.993C126.376 699.516 128.14 699.033 129.906 698.558C127.972 695.722 128.895 690.651 129.047 687.508L129.056 687.292C129.212 683.103 129.687 678.909 129.995 674.728C130.582 666.757 131.345 658.844 132.36 650.919L132.619 648.938C133.769 640.315 134.619 631.643 135.875 623.035L136.023 622.05C135.421 619.848 134.72 617.672 133.985 615.507C132.025 609.737 129.259 604.307 126.835 598.719C126.549 598.061 127.529 597.684 127.986 598.078C132.091 601.612 135.352 606.096 137.972 610.786C138.017 610.564 138.057 610.343 138.105 610.121L138.404 608.713C139.141 605.279 140.037 601.666 142.239 598.881C142.473 598.585 142.937 598.523 143.158 598.881C145.265 602.293 145.501 606.613 145.825 610.495C146.192 614.887 146.238 619.334 146.173 623.738C146.047 632.345 145.413 640.975 144.908 649.567C144.412 658.011 143.44 666.347 142.186 674.707L141.947 676.275C141.335 680.255 140.833 684.284 140.024 688.236L139.796 689.312C139.364 691.272 139.098 694.035 138.238 696.331C160.372 690.422 182.54 684.648 204.751 678.976C220.803 674.876 236.873 670.837 252.935 666.773C253.783 665.311 254.838 663.945 256.156 662.725C260.495 658.703 266.246 656.908 271.521 660.004C271.95 660.257 271.986 660.9 271.521 661.144C270.51 661.672 269.498 662.214 268.503 662.779L278.148 660.279C285.357 658.409 292.653 656.073 300.031 654.77C313.622 648.351 328.239 643.705 342.556 639.113L344.243 638.567C351.574 636.175 359.156 633.497 366.73 632.171C372.274 631.201 378.783 632.372 381.012 637.808C383.835 639.589 386.491 641.681 389.053 643.739C390.906 645.225 392.682 646.806 394.489 648.346L394.822 648.625C396.298 649.852 397.468 650.673 397.83 652.624C398.017 653.632 397.348 654.995 396.049 654.862C392.074 654.454 388.842 650.045 386.146 647.412C384.063 645.376 381.964 643.272 380.063 641.035C378.955 641.612 377.436 641.509 376.731 640.23C373.073 633.602 363.053 638.195 357.509 639.767L349.567 642.017C345.597 643.143 341.628 644.275 337.665 645.427C326.775 648.592 315.938 652.134 304.949 655.041C305.933 656.075 305.797 657.915 303.93 658.615C295.328 661.845 285.891 663.515 276.955 665.731C271.313 667.132 265.674 668.541 260.037 669.958C259.071 671.457 258.375 673.152 258.083 675.125C257.007 682.381 259.082 690.753 261.102 697.771L261.407 698.818C263.068 704.46 265.512 711.377 270.599 714.939C271.84 715.808 273.421 716.413 275.015 716.55C284.972 711.645 294.928 706.74 304.891 701.845C306.736 700.938 308.441 702.166 308.856 703.626C312.368 703.074 315.873 702.205 319.065 701.168C324.429 699.425 328.617 696.1 333.645 693.8C343.374 689.353 353.31 694.816 362.021 698.97L364.029 699.914C367.935 701.728 376.062 705.213 377.936 700.252C379.749 695.452 374.017 690.323 370.316 688.163C365.903 685.587 360.765 684.209 355.779 683.061C352.931 682.405 350.049 681.87 347.149 681.479C343.86 681.036 340.463 681.103 337.297 680.082C335.723 679.576 335.481 677.184 337.297 676.789C342.171 675.727 347.989 676.885 353.076 678.069L355.735 678.696C360.86 679.899 366.035 681.41 370.703 683.811C374.098 685.557 377.68 688.21 380.021 691.458C382.053 689.651 384.583 689.712 387.218 690.382L388.648 690.762C391.01 691.389 392.924 691.82 395.223 691.386C395.53 689.786 395.841 688.185 396.174 686.585C399.449 670.85 403.041 655.175 407.004 639.585C413.839 612.693 421.749 586.096 430.666 559.772L431.561 557.14C433.618 551.119 435.273 544.559 438.589 539.027C441.725 533.797 446.749 530.784 452.718 529.189C459.493 527.378 466.611 526.431 473.522 525.208C475.063 524.936 476.609 524.677 478.152 524.409C476.848 522.156 475.874 519.598 474.998 517.635L474.844 517.295C472.961 513.186 471.269 509.002 469.635 504.796L468.413 501.634C465.463 494.02 462.418 486.531 458.27 479.41C453.905 471.915 448.113 465.788 440.893 460.717C426.173 450.376 408.431 445.102 394.153 434.051C393.568 433.599 394.318 432.824 394.912 433.111C404.552 437.747 414.96 440.899 424.987 444.673L426.965 445.42C434.89 448.427 442.939 451.7 449.799 456.568C457.447 461.997 463.47 468.738 467.998 476.755C472.459 484.658 475.314 493.503 478.462 501.944L479.304 504.193C480.573 507.565 481.885 510.928 483.388 514.21C484.581 516.815 486.807 519.79 487.819 522.766C490.587 522.307 493.355 521.846 496.127 521.403C556.153 511.811 616.849 506.176 677.681 504.527C680.061 504.462 681.292 506.636 680.941 508.623C675.103 541.66 669.915 574.81 664.223 607.873C661.738 622.302 659.204 636.721 656.611 651.133C655.297 658.435 653.778 665.708 652.533 673.021C651.529 678.926 650.8 684.878 649.075 690.646C647.528 695.819 645.154 700.806 641.255 704.752C637.053 709.006 631.187 711.065 625.282 712.038C610.293 714.507 594.918 715.515 579.807 717.159L499.356 725.919C500.531 736.146 500.619 746.214 500.08 756.561L499.772 762.209C499.521 766.752 499.22 771.301 498.539 775.798C497.684 781.438 494.988 786.214 491.017 790.426C487.371 794.295 482.941 797.596 478.632 800.759C474.159 804.044 469.538 807.214 464.279 809.245L463.597 809.504C458.983 811.228 450.329 813.897 444.023 812.922C444.847 816.874 446.442 821.124 445.028 825.035C444.373 826.851 441.891 827.757 440.371 826.212C437.359 823.149 437.124 819.104 436.411 815.109C435.669 810.951 435.029 806.778 434.46 802.596C433.361 794.509 432.505 786.347 432.244 778.192C431.975 769.816 432.079 761.429 432.551 753.063C432.793 748.766 433.094 744.472 433.663 740.203C433.907 738.383 434.155 736.561 434.439 734.745C434.542 734.082 434.657 733.423 434.781 732.766L427.56 733.545C416.488 734.728 405.41 735.797 394.259 735.963C392.939 735.982 391.923 735.406 391.259 734.568C390.552 735.671 389.32 736.46 387.556 736.453C371.984 736.398 357.483 731.525 343.32 725.782C336.181 722.886 329.153 719.751 322.003 716.88C315.33 714.2 308.196 712.288 301.683 709.27L284.571 717.86C284.445 718.283 284.284 718.682 284.113 719.017C282.999 721.193 280.802 722.374 278.558 723.263C276.405 724.118 274.175 724.384 272.002 724.168C259.024 730.677 246.042 737.18 233.052 743.667L220.059 750.149C194.173 763.049 168.388 776.16 142.338 788.757L140.42 789.681C131.423 793.998 121.761 798.375 111.776 801.641C111.598 804.06 111.71 806.413 111.922 808.973L111.973 809.531C112.271 812.556 112.909 816.347 110.373 818.501C109.054 819.621 106.697 819.626 105.8 817.937C104.173 814.874 105.634 810.046 106.15 806.718C106.333 805.535 106.556 804.319 106.886 803.139C95.4386 806.4 83.6447 807.982 71.9958 806.15C60.6541 804.368 51.87 797.53 44.7885 789.166C37.3149 780.34 32.0041 770.054 29.1546 759.027C25.9118 746.48 25.7 733.522 25.7762 720.67C25.857 706.984 26.386 693.231 28.1253 679.637C26.2197 679.208 24.1063 678.837 22.1807 678.965C21.2268 680.426 19.3766 681.041 17.7048 680.851C14.0692 684.689 23.2908 688.61 26.2377 689.592C27.261 689.934 27.1515 691.524 25.9712 691.476L25.2278 691.442C20.6742 691.21 15.9697 690.466 13.2923 686.416C11.1469 683.17 11.7915 679.325 14.349 676.677C16.0383 661.392 20.0766 646.507 23.8351 631.595C27.5235 616.96 31.6254 602.418 35.973 587.95L37.9221 581.474C44.7673 558.788 51.9224 535.918 61.3648 514.134C66.0798 503.256 71.5116 492.579 78.8743 483.094C85.7374 474.253 93.8402 466.687 103.154 460.225C120.517 448.178 140.891 440.899 160.909 433.964L161.805 433.653C172.179 430.062 182.528 426.428 192.783 422.537C201.853 419.096 210.542 414.733 219.57 411.24C219.276 410.73 218.993 410.215 218.721 409.694L218.554 409.829C218.525 409.85 218.496 409.871 218.466 409.891C217.558 410.493 216.221 410.197 215.473 409.522C213.361 407.614 214.076 405.497 215.486 403.518L215.67 403.267C217.394 400.954 218.933 398.51 220.524 396.114L221.521 394.616C224.193 390.613 227 386.583 230.563 383.275C232.213 381.742 234.019 380.595 235.932 379.741C235.769 379.41 237.203 378.733 237.61 379.073C243.673 376.95 250.648 377.395 257.258 377.98M495.463 726.342L487.033 727.26C477.76 728.27 468.482 729.246 459.204 730.213L439.05 732.309C438.999 733.409 438.859 734.484 438.834 735.314C438.702 739.595 438.604 743.878 438.511 748.161C438.325 756.745 438.529 765.337 439.12 773.904C439.692 782.206 440.446 790.508 441.617 798.754L441.857 800.402L441.996 801.269C442.952 801.357 443.891 801.792 444.672 802.685C446.376 804.632 452.549 802.739 454.959 801.918C458.924 800.568 462.657 798.287 466.101 796C469.465 793.767 472.494 791.162 475.405 788.419L477.787 786.165C480.156 783.912 482.527 781.512 483.979 778.677C485.947 774.834 486.202 770.117 486.779 765.931C487.49 760.782 488.336 755.634 489.23 750.511M250.759 672.299L249.884 672.518C218.123 680.595 186.409 688.911 154.55 696.631C138.784 700.453 122.943 703.996 107.158 707.744L104.602 708.356C92.1489 711.368 79.5463 714.993 70.01 723.638C69.658 723.956 69.147 723.467 69.4783 723.129C79.756 712.658 94.3732 708.225 108.408 704.383C111.002 703.673 113.6 702.979 116.195 702.273C97.1078 695.76 77.7194 690.095 57.8835 686.054C52.7758 685.013 47.6086 684.249 42.5048 683.205C38.9454 682.476 35.4693 681.422 31.9475 680.548L29.1773 679.881L29.1406 688.26C29.0945 700.128 29.1165 711.986 29.7491 723.852L29.8689 726.051C30.607 739.256 31.7591 752.735 36.6556 765.187C40.6346 775.305 46.9767 784.837 55.2705 792.207C59.4672 795.935 63.9792 798.838 69.5565 800.271C74.735 801.602 80.1607 801.758 85.4842 801.403C111.019 799.698 133.749 786.423 155.93 775.431C192.211 757.454 228.495 739.485 264.813 721.576C263.831 720.934 262.907 720.193 262.066 719.362C257.196 714.548 254.627 707.959 252.939 701.577C251.143 694.784 250.069 687.504 249.944 680.491M296.969 728.516C297.29 728.351 297.661 728.557 297.676 728.904C297.788 731.559 296.255 734.177 295.11 736.568L294.989 736.824C293.597 739.786 292.074 742.709 290.498 745.585C287.349 751.333 284.076 757.019 280.66 762.625C273.791 773.902 266.157 784.704 257.135 794.523C255.097 796.741 251.745 793.897 253.053 791.509C259.358 779.996 266.709 769.125 274.276 758.349C278.064 752.954 281.849 747.554 285.674 742.183C287.27 739.941 288.886 737.708 290.546 735.509L291.547 734.194M673.659 511.121C641.786 512.042 609.951 514.031 578.231 517.149C548.731 520.048 519.338 523.907 490.112 528.718C484.007 529.723 477.91 530.769 471.821 531.856L468.169 532.513C462.078 533.618 454.638 534.074 449.216 537.188C443.499 540.47 441.954 547.331 440.052 552.988C437.815 559.642 435.636 566.314 433.515 573.003C425.094 599.559 417.401 626.346 410.539 653.309C407.132 666.694 404.11 680.152 400.925 693.585C398.095 705.52 394.973 717.32 391.712 729.135C392.114 728.836 392.607 728.609 393.202 728.487C409.398 725.189 425.931 723.756 442.369 721.934L443.96 721.756C460.965 719.842 477.97 717.943 494.985 716.112L607.64 703.987C614.284 703.272 621.401 703.175 627.867 701.469C638.86 698.567 641.437 686.805 643.281 677.437L643.337 677.154C648.897 648.853 653.324 620.305 658.51 591.932M394.334 696.235C389.96 695.959 383.974 692.126 380.655 692.401C382.397 695.198 383.184 698.388 382.18 701.796C379.386 711.277 366.75 706.371 360.664 703.475C355.674 701.099 350.855 698.192 345.331 697.079C339.072 695.819 334.832 698.201 329.544 700.947C325.202 703.201 320.472 704.821 315.608 705.659C313.022 706.105 310.565 706.152 308.113 705.978C307.965 706.093 307.799 706.2 307.609 706.295L306.312 706.947C312.177 707.204 318.151 708.936 323.61 710.522C329.266 712.165 334.819 714.145 340.342 716.171L345.775 718.169C359.178 723.081 373.051 727.745 387.556 727.705C388.599 727.702 389.453 727.978 390.126 728.429M369.863 666.527C374.184 666.021 378.172 666.563 381.625 669.255C385.789 672.501 388.586 677.885 394.572 678.238C396.318 678.341 396.723 680.69 394.988 681.181C390.533 682.443 386.925 680.136 383.889 677.141L381.848 675.1C378.848 672.127 376.081 669.829 370.991 670.006C365.539 670.197 360.078 671.402 354.661 672.015C348.526 672.71 342.391 673.302 336.236 673.812C335.95 673.836 335.901 673.405 336.169 673.342L343.063 671.7M365.692 649.621L366.405 649.553C372.679 648.97 378.417 648.947 384.021 652.177L385.096 652.799C390.148 655.738 395.647 659.201 398.807 663.959C399.324 664.738 398.469 665.654 397.604 665.456C391.532 664.061 387.093 659.797 381.987 656.606C376.256 653.025 370.336 653.616 363.801 654.172C357.474 654.711 351.151 655.451 344.886 656.46C339 657.408 333.095 658.903 327.148 659.38L327.15 659.369C326.471 659.368 326.083 658.391 326.776 658.06C332.81 655.177 339.799 653.812 346.363 652.494M556.299 590.269C555.693 587.493 559.261 586.206 560.915 588.408L561.267 588.872C564.84 593.557 570.007 599.435 569.744 605.394C572.884 605.459 576.141 607.286 577.364 609.998C577.93 611.253 578.122 612.74 577.997 614.279C580.852 614.491 583.965 616.285 585.71 618.032C588.603 620.927 588.832 625.018 586.756 628.401C582.231 635.775 572.346 638.458 564.002 639.057L563.704 639.077C555.085 639.647 542.665 639.493 536.755 632.416C531.055 625.59 537.355 620.063 543.816 617.061C542.134 615.592 541.263 613.484 542.082 611.261C543.52 607.355 548.597 605.846 551.466 603.13C554.963 599.819 557.275 595.277 556.353 590.529M561.036 596.273C560.086 600.226 557.751 603.841 554.499 606.707C553.255 607.802 551.894 608.778 550.449 609.616L550.275 609.712C548.992 610.402 545.839 611.693 546.082 613.239C546.332 614.828 551.469 617.316 552.869 617.317C553.187 617.317 553.368 617.793 553.043 617.931C550.505 619.004 548.289 619.464 545.807 618.33C544.15 619.95 542.539 621.626 540.944 623.288C538.123 626.227 539.089 629.332 542.422 631.521C547.777 635.038 555.918 634.952 562.167 634.696C568.456 634.439 575.179 633.097 580.092 629.088L580.306 628.909C582.976 626.637 585.414 622.786 581.325 620.597C579.724 619.74 577.994 619.79 576.474 619.373C575.051 622.042 572.744 624.18 569.927 624.592C567.652 624.925 566.084 622.188 568.155 620.878L568.62 620.602C571.219 619.014 573.438 616.568 573.379 613.383C573.339 611.172 570.112 608.379 568.011 610.457L567.914 610.556C566.156 612.454 563.058 610.063 564.214 607.96L564.27 607.865M150.84 486.334C150.832 485.859 151.53 485.681 151.774 486.093C155.856 492.966 157.991 501.392 160.165 508.966C162.443 516.899 164.282 524.913 165.934 532.985C169.279 549.331 171.062 565.584 171.183 582.244C171.2 584.623 167.151 585.256 166.755 582.818C164.125 566.612 161.605 550.39 158.956 534.189C157.623 526.04 156.071 517.923 154.586 509.799M191.256 498.307C190.956 497.359 192.397 497.042 192.766 497.909C200.959 517.156 203.733 538.969 198.473 559.275C197.668 562.381 192.915 561.035 193.522 557.968M296.936 481.205C296.895 480.495 297.857 480.383 298.22 480.872C302.102 486.106 303.713 493.117 310.524 495.822C313.924 497.173 317.751 496.938 320.755 499.219C322.764 500.745 324.304 503.154 322.796 505.465C322.31 506.212 320.949 506.586 320.289 505.774C319.326 504.592 318.816 503.177 317.508 502.291C315.662 501.041 313.173 500.964 311.057 500.376C308.32 499.617 305.907 498.288 303.932 496.313M361.792 393.893C362.192 393.698 362.576 393.822 362.832 394.154C363.198 394.625 363.153 395.084 362.705 395.408C363.303 396.577 364.009 399.506 364.11 399.932C364.519 401.661 364.954 403.379 365.409 405.096C366.326 408.559 367.13 412.049 368.049 415.513C369.023 419.185 370.183 422.818 371.474 426.398C371.557 426.63 371.649 426.867 371.745 427.107L371.892 427.47L371.928 427.415C372.191 427.018 372.737 427.295 372.672 427.714C372.612 428.097 372.531 428.477 372.463 428.859L372.599 429.202C373.443 431.377 374.022 433.668 372.472 435.588C371.892 436.306 371.254 436.731 370.46 436.858C369.185 440.879 367.586 444.825 365.874 448.614L365.372 449.721C362.854 455.251 360.168 460.708 356.159 465.415C351.781 470.555 345.76 474.064 341.946 479.696C340.172 482.316 338.938 485.07 337.936 488.029L337.559 489.152C336.848 491.244 336.028 493.272 333.976 494.5C333.322 494.891 332.341 494.766 331.814 494.233C327.608 489.975 332.011 482.024 334.547 477.901C338.072 472.168 343.175 468.501 348.284 464.176C353.791 459.513 357.304 453.277 360.702 447.133C362.783 443.369 364.792 439.524 366.907 435.743C364.697 433.874 363.99 430.161 363.241 427.58L363.173 427.348C361.935 423.215 360.952 418.974 360.331 414.715C359.733 410.619 359.484 406.583 359.642 402.464L359.687 401.415M370.01 413.385C369.521 412.744 370.329 412.019 370.999 412.152C375.073 412.958 379.055 415.318 382.711 417.226L383.101 417.429C386.019 418.935 388.956 420.78 390.488 423.706C392.154 426.886 392.017 430.548 391.79 434.004L391.768 434.327C391.49 438.472 391.445 442.778 390.529 446.847C390.06 448.93 388.089 449.517 386.403 449.024C384.398 455.084 378.766 459.549 374.651 464.33C369.405 470.426 370.392 478.656 370.941 485.998C371.162 488.971 367.299 489.816 365.309 488.23L360.724 484.585C359.96 483.976 359.197 483.367 358.437 482.755C357.785 482.23 357.14 481.702 356.5 481.166L355.543 480.358C355.119 479.995 353.248 477.995 352.701 477.912C351.376 477.71 348.228 481.052 347.151 482.1L347.014 482.231C344.986 484.134 343.154 486.182 341.448 488.353C341.134 488.752 340.52 488.421 340.744 487.96C342.273 484.825 344.052 481.828 346.163 479.023L346.589 478.464C347.994 476.652 349.88 473.454 352.359 472.919C355.387 472.266 358.41 475.171 360.612 476.784L360.752 476.885C361.8 477.637 362.836 478.403 363.87 479.174C363.762 473.708 364.483 468.185 367.432 463.474C369.511 460.152 372.627 457.691 375.292 454.837C378.26 451.658 379.81 447.75 382.496 444.44C382.842 444.014 383.319 443.785 383.835 443.712C383.938 441.05 384.348 438.362 384.665 435.729L384.756 434.941C385.076 432.08 385.832 428.586 384.369 425.907C382.987 423.377 379.815 421.59 377.466 419.874L375.548 418.45M237.814 383.136C236.588 383.815 235.441 384.66 234.401 385.715C231.128 389.039 228.787 393.175 226.51 397.153C225.283 399.296 224.101 401.463 222.865 403.6C222.327 404.53 221.774 405.45 221.215 406.369C220.956 406.792 220.188 407.633 219.808 408.152C220.231 408.719 220.668 409.278 221.114 409.83C221.284 410.041 233.027 422.284 237.121 427.075C243.389 434.414 248.991 442.166 253.781 450.464C258.471 458.59 262.042 467.193 266.387 475.475C268.562 479.622 270.991 483.74 274.087 487.328C274.206 487.468 274.332 487.601 274.455 487.739C275.636 484.684 278.664 481.413 280.151 479.535L280.29 479.358C283.662 475.007 287.224 470.787 290.863 466.639C294.186 462.851 297.594 459.145 301.085 455.5L302.398 454.136C304.83 451.622 307.919 447.86 311.479 446.064C311.098 445.413 310.656 444.769 310.149 444.134C306.813 439.962 302.098 436.935 297.445 434.203L294.428 432.447C283.054 425.813 271.858 418.872 261.983 410.254C256.759 405.693 251.608 400.916 247.217 395.597L245.664 393.716M256.792 379.853C251.465 380.28 245.714 380.179 240.792 381.839C245.167 385.798 249.327 390.073 253.599 394.098C253.979 391.376 254.757 388.686 255.416 386.032" fill="black"/>
<path fill-rule="evenodd" clip-rule="evenodd" d="M347.698 358.079C343.208 356.325 339.202 353.401 336.273 349.666C335.254 348.367 334.99 346.996 335.204 345.742C335.444 344.331 336.316 343.053 337.505 342.196C338.697 341.336 340.189 340.912 341.632 341.128C342.885 341.316 344.132 341.972 345.12 343.334L345.326 343.607C347.067 345.861 349.336 347.711 351.922 348.904C354.414 350.053 357.201 350.589 360.085 350.277C365.578 349.683 369.364 346.84 373.388 342.979C373.887 342.492 374.386 341.989 374.888 341.478C375.205 341.015 375.644 340.718 376.132 340.562C376.674 340.388 377.287 340.398 377.849 340.586C378.39 340.766 378.874 341.109 379.199 341.565C379.507 341.999 379.682 342.534 379.625 343.15C379.257 347.152 377.071 350.722 373.967 353.526C370.518 356.64 365.947 358.795 361.644 359.55C356.903 360.383 352.072 359.786 347.698 358.079ZM363.881 296.353C368.925 299.287 376.61 306.129 371.184 313.403C364.797 319.817 355.601 312.463 351.069 309.137C346.868 306.559 342.147 313.189 346.045 316.199C378.79 339.401 392.079 297.12 366.432 292.903C363.608 292.438 362.559 295.445 363.881 296.353ZM305.201 269.363C305.759 262.742 316.294 261.239 317.342 267.79C318.28 273.659 317.175 279.049 314.413 284.333C311.774 289.38 305.141 287.025 304.64 282.429C303.967 276.268 304.855 273.481 305.201 269.363ZM385.397 266.432C386.866 264.591 388.986 263.334 391.527 264.044C399.466 266.264 397.126 277.05 394.338 282.301C392.823 285.152 387.926 285.875 385.714 283.364C382.107 279.271 380.379 271.095 384.965 267.063C385.089 266.854 385.227 266.644 385.397 266.432ZM314.302 240.394L315.556 240.184C319.435 239.542 324.258 238.925 327.003 241.91C328.458 243.493 328.959 246.435 327.003 247.95C323.561 250.615 319.757 249.582 315.633 249.808C312.234 249.995 308.968 250.533 305.695 251.429C298.513 253.393 292.661 256.979 286.527 260.917C285.722 261.434 284.901 260.448 285.285 259.728C288.826 253.091 295.687 247.638 302.561 244.315C306.229 242.541 310.243 241.069 314.302 240.394ZM378.16 237.421L379.12 237.609C389.565 239.699 403.135 243.872 408.081 253.691C408.27 255.079 408.071 255.377 407.909 255.571L407.855 255.636C407.721 255.802 407.615 256.031 406.986 256.22C406.812 256.18 406.635 256.138 406.457 256.093C404.19 255.525 402.396 254.741 400.66 253.929L398.777 253.041C396.592 252.016 394.388 251.028 392.053 250.299C387.068 248.743 381.942 247.647 376.736 247.061C375.607 246.935 374.521 246.57 373.663 245.945C372.85 245.353 372.228 244.532 371.945 243.44C371.577 242.028 371.683 240.959 372.475 239.685C373.07 238.728 373.922 238.065 374.9 237.685C375.897 237.296 377.032 237.205 378.16 237.421Z" fill="black"/>
<path fill-rule="evenodd" clip-rule="evenodd" d="M420.988 293.214C412.878 301.234 399.34 303.535 388.551 299.234C360.848 288.157 374.407 253.605 395.773 244.326C398.442 243.69 402.007 242.179 405.258 241.836C405.552 241.698 406.191 242.098 406.967 241.72C430.526 244.237 435.891 279.238 420.988 293.214ZM331.632 295.267C322.536 306.813 305.627 310.375 291.811 305.007C264.517 294.721 274.198 264.082 292.872 252.07C332.318 237.884 348.607 273.979 331.632 295.267ZM272.465 269.685C272.44 269.674 272.415 269.668 272.389 269.657C272.533 269.596 272.677 269.535 272.821 269.473C272.774 269.59 272.723 269.706 272.678 269.823C272.607 269.776 272.545 269.722 272.465 269.685ZM439.765 257.205C437.538 257.21 434.321 257.56 432.478 259.039C427.932 244.366 411.152 230.786 396.558 240.688C385.066 244.225 376.539 252.07 371.692 262.498C362.954 257.524 349.213 259.648 341.635 266.226C336.672 250.532 324.458 245.036 309.92 244.225C294.053 241.738 278.237 256.486 273.302 268.317C269.199 267.871 263.068 266.621 259.208 269.044C234.155 262.757 190.355 259.29 185.262 262.783C181.632 264.116 179.641 272.315 184.71 272.758C189.128 272.157 184.195 266.75 188.648 266.16C212.375 264.752 235.409 269.326 258.885 271.245C260.981 273.943 267.754 274.846 271.367 273.761C265.676 293.831 277.96 307.486 296.365 311.576C324.864 317.841 349.659 293.442 342.207 268.064C350.84 263.953 360.77 264.13 370.175 266.295C354.459 321.648 447.609 319.164 433.06 260.935C442.742 265.544 444.845 258.135 439.765 257.205Z" fill="black"/>
<rect x="517" y="566" width="84" height="91" fill="white"/>
</g>
</svg>
