<?xml version="1.0" encoding="utf-8"?>
<!-- Generator: Adobe Illustrator 28.0.0, SVG Export Plug-In . SVG Version: 6.00 Build 0)  -->
<svg version="1.1" id="레이어_1" xmlns="http://www.w3.org/2000/svg" xmlns:xlink="http://www.w3.org/1999/xlink" x="0px"
	 y="0px" viewBox="0 0 580 707" style="enable-background:new 0 0 580 707;" xml:space="preserve">
<style type="text/css">
	.st0{fill:#D9D9D9;filter:url(#Adobe_OpacityMaskFilter);}
	.st1{mask:url(#mask0_1_2545_00000170247317885469494060000001443558628217698188_);}
	.st2{fill-rule:evenodd;clip-rule:evenodd;fill:#FFFFFF;}
	.st3{fill-rule:evenodd;clip-rule:evenodd;}
	.st4{fill:#FFFFFF;}
</style>
<defs>
	<filter id="Adobe_OpacityMaskFilter" filterUnits="userSpaceOnUse" x="-101" y="89" width="669" height="738">
		<feColorMatrix  type="matrix" values="1 0 0 0 0  0 1 0 0 0  0 0 1 0 0  0 0 0 1 0"/>
	</filter>
</defs>
<mask maskUnits="userSpaceOnUse" x="-101" y="89" width="669" height="738" id="mask0_1_2545_00000170247317885469494060000001443558628217698188_">
	<rect x="0" class="st0" width="580" height="707"/>
</mask>
<g class="st1">
	<path class="st2" d="M252.3,105c-37.9,0-85.4,41.4-99.3,59c-11.7,14.8-10,91.1-10,136.4c0,9.5,4.5,27.4,6.1,36.4
		c5.9,33.2,31.9,61,83.2,61c41.8,0,73.9-12.7,105-45c7.1-7.4,41.7,19.1,48.8,9.5c18.5,0,34-165.4-2.4-215
		C347.3,97.7,290.3,105,252.3,105z"/>
	<path class="st3" d="M366.3,116.6c-21.9-19.1-51.1-28.3-80.6-27.6c-15.3,0.4-30.5,3.1-44.9,7.9c-7.2,2.4-14.2,5.5-20.9,9
		c-2.4,1.3-4.6,2.8-6.8,4.3l-0.5,0.4h0c-5.7,2-10.8,5.5-15.5,9.6c-9.3-0.7-18.7,0.1-27.6,2.8c-12.5,3.8-24.1,10.8-32.2,20.8
		c-9.5,11.6-12.6,25.6-11.5,40.1l0.2,2.5c1.1,12.8,3.1,29.3,14.1,37.7c0.8,0.6,1.8,1.1,2.7,1.4c-7.1,11.6-12.9,24.5-16.4,37.5
		c-13.3,49.7-3.1,101.5,12.9,149.3c1.3,3.9,7.5,6.6,10.7,2.7c5.7-6.9,13.9-12.1,23.2-13.1c5.7-0.6,11.4,0.5,16.8-2
		c2.1-1,4.2-2.6,5.6-4.5c9.1,3.3,18.9,4.9,28.7,4.5c16-0.6,33-5.9,44-17.5c1.8-1.9,2.2-4,1.8-5.8c-1.4-0.5-2.8-0.8-4.2-1
		c-13.9,7.9-29.3,13.1-45.8,13.4c-9.5,0.2-18.8-1.1-26.6-6.8c-1.7-1.2-3.2-2.6-4.6-4.1c-16.2-10-27.6-26.9-33-45
		c-5-16.9-4.4-34.5-2.7-51.8l0.9-9.1c1.3-13.4,2.6-26.9,2.9-40.3l-0.1,0c-3.4-0.2-3.4-5.3,0-5.1c8.9,0.6,17.7-0.8,26.6-0.2
		c0.1-4,0.4-8,1.6-11.9c0.7-2.2,4.7-2.6,5.2,0c0.6,3.5,0.8,7.1,0.8,10.6c13.3-0.2,26.5-1.2,39.8-0.8c2.4-2.5,3.2-6.9,4.4-10
		c0.2-0.5,0.3-0.9,0.5-1.4c1,4.4,2.4,8.7,4.3,12.9l3.3,0c18.5,0.1,37.3,0.6,55.4,4.3c1.3-0.9,2-2.5,2.2-4c1.3-9.5,3.2-18.7,6.5-27.8
		l0.5-1.3c0-0.1,0.1-0.2,0.1-0.3c2.4,3.8,5.3,7.3,8.5,10.5c1.9,1.9,3.8,3.8,5.8,5.6c2,2.1,4,4.1,5.9,6.2c-0.1,0.4-0.1,0.8-0.2,1.2
		c-0.6,4.3-0.7,8.7-0.2,13.1c0.8,7.8,3.1,15.4,6.8,22.4l0.1,0.7c0.6,3.3,1.4,6.7,3.2,9.1c-2.3,2.5-4.1,5.5-5.2,8.8
		c-0.9,3,3.4,5.5,5.6,3.1c1.8-1.9,3.7-3.5,5.9-4.8c0.1,0.2,0.4,0.3,0.7,0.1c6-3.2,16.2-2.2,22.2,0.8c7.5,3.7,10.4,11.4,9.5,19.2
		c-0.8,7.4-4.2,16.1-10.8,19.9c-3,1.7-5.4,1.9-8.6,1.1c-1-0.3-2.3-1.1-2.8-1.5l-0.5-0.4c-2.1-1.6-4.1-2.7-6.5-2.7
		c-2.5-0.8-5.1,0.3-6.1,2.8l-0.1,0.2c-0.5,1.3-1.3,2.9-1.1,4.9c0.2,2.1,1.2,4.1,2.7,5.6c0.3,0.3,0.5,0.5,0.8,0.8
		c-26.1,27.1-29.5,69.2-16.1,103c0.6,1.5,1.2,2.9,1.9,4.4c2.2,5,10.9,3.4,11.9-1.5c0.3-1.5,0.7-2.9,1.1-4.4c0.7-2.7,1.6-5.4,2.5-8
		l0.4-1c0.8-2.2,1.5-4.4,2.3-6.5l0.1-0.2c0-0.1,0.1-0.2,0.1-0.3l1.4,2.8l4.1,8.5c1.9,4,8.1,1.8,8.3-2l0-0.1c0-0.7,0-1.4,0.1-2.1
		c0.3-5.2,1.2-10.3,2.7-15.3l0.5,0.6c8,9.5,17.5,18.4,30.4,20.6c3.2,0.6,6.9-2.7,4.7-5.8c-0.9-1.3-1.8-2.6-2.7-4
		c0.7-0.3,1.4-0.7,2-1c4.9-2.6,9-6.4,12.4-10.7c7.2-9,9.7-20.4,10.4-31.6c0.7-11.8-0.4-24.2-3.8-35.5c-1.5-4.9-3.4-9.6-5.7-14.2
		c0.2-0.4,0.3-0.8,0.5-1.2c2.5-6.6,4.5-13.3,6.2-20c3.4-13.7,5.2-27.8,5.4-41.9c0.4-25.2-4.1-50.8-13.7-74.3
		C401.4,157.6,386.6,134.2,366.3,116.6z M378.6,337c1.8-2.7,6.4-0.3,4.7,2.5l-0.1,0.1c-2.9,4.3-4.2,9.3-5.9,14.1
		c-1.1,3.1-6.2,1.8-5.1-1.4l0.4-1C374.2,346.4,375.7,341.4,378.6,337z M362.8,284.8l-1.2-0.6c-3.8-1.7-7.1-2.9-11.6-1.4
		c-6,2-12.5,8.5-8.4,14.7c1.5,2.3,4.2,3.2,6.9,2.7c4.6-0.9,5.8-4.9,8.2-8.2l0.4-0.6c1.4-2,3.2-4.7,5.6-5.5
		C363.2,285.9,363.4,285.1,362.8,284.8z M359.4,151.9l-0.4-0.3c-2.6-2.2,1.2-5.8,3.8-3.6c11.8,10,15.9,25.5,22,38.8
		c1.4,3-3.2,5.6-4.6,2.6C374.3,176.7,370.5,161.5,359.4,151.9z M218,147.6c3.1-1.3,5.8,3,2.8,4.4l-0.1,0
		c-10.4,4.5-14.8,14.7-19.1,24.1c-1.3,3-6,0.4-4.6-2.6l0.8-1.7C202.2,162.1,207.4,152.2,218,147.6z M201.7,141.4
		c3.3-1.1,4.7,3.9,1.4,4.9c-8.8,2.9-14.9,9.3-20,16.5c-1.9,2.7-6.5,0.2-4.6-2.6C184.5,151.9,191.5,144.8,201.7,141.4z"/>
	<path class="st2" d="M-84.7,508.7c9.5,0.9,19.1,1.8,28.6,2.7c45.7,3.3,91.3,10.3,136.7,14.5c1.1-1.8,3.3-1.5,4.7-0.2
		c4.5-0.4,9.6-3.7,13.7-0.2c0.1,0,0.3,0,0.4-0.1c7.3-13.4,12.3-27.7,17.2-42c3.1-8.8,7.3-17.3,15.1-23.2
		c13.3-8.8,43.6-26.7,59.2-25.9c0.3-2.7,1.6-5.4,3.7-7.2c-4.7-7.7,14.1-12.7,15.4-11.8c-0.9-25.6,11.7-47.9,39.5-53
		c24.9-5,60.3-5.8,73.7,19.1c1.5-0.2,16.5-0.2,18-0.1c2.3-2.7,27.1,23.2,16.9,32.3c91,38.5,142.8,33.9,168,142.3
		c3.4,10.2,3.7,21.3,7.3,31.3c12.8,28.6,23.2,59,25.8,90.2c6.2,1.5,7,12.1-0.3,13.6c-2.8,0.6-5.1,1.4-7.1,2.9
		c1.6,25.5-4.9,83.7-8.9,83.6c-8.3,25.2-45.2,32.3-71.3,23.5c4.5,8.1,0,13.2,0,17.6c-94.1,3.4-196.9,1.4-291,6.1
		c-12-0.2-24.7,2.8-36.5,1.1c-7.2-1.7-7.2-12.5,0.1-13.9l-32.1-6.7c0.7-0.3-13.2-9.1-23.8-25.7c-9.8-18.5-3.1-40.9-7.6-61.1
		c-34.7-2.7-70-3.9-104.3-9.5c-4.7,13.4-24.9-2.6-31.4-9.1c0,0,0,0,0,0c-3.1-0.8-5.6-3.6-5.7-6.9c-2.2-3-2.6-7.2-0.5-10.1
		c-9.6-53-24.2-107.2-29.5-160.7c-1.9-0.4-3.6-1.2-5.1-2.4l0.1-0.1c-2.5-2.7-3-7.4,1.2-9.7C-91.2,507.7-88.3,508.3-84.7,508.7z"/>
	<path class="st3" d="M321.5,374.1c-2.8-6.8-12.4-4.2-11.3,3c0.6,4.3,3.1,8.8,5.3,12.6c1.8,3.1,3.8,6,6.6,8.3
		c-4.9,4.4-10.1,8.7-15.3,12.7c-5.7,4.4-11.8,8.5-18,12.2c-5.5,3.3-11.2,6.2-16.3,9.9c-4.8,3.5-9.2,7.6-11.4,13.1
		c-2.4,5.8-1.3,11.8,0.4,17.6l0.2,0.7c1.8,5.7,4.9,12.7,0.6,18.1c-2.2,2.8-5.3,4.7-8.1,6.9c-2.4,2-4.7,4.1-6.8,6.4
		c-4.6,5-8.3,10.6-10.6,16.9l-0.2,0.6c-2,5.5-3.5,12.3-0.8,17.8c0.8,1.6,3.3,1.1,3.7-0.5c1-3.4,0.9-7,1.8-10.5
		c0.9-3.6,2.3-7.1,4.2-10.3c3.6-6.3,8.5-11.7,14.3-16.2l1.7-1.3c4.5-3.5,8.7-7.3,9.6-13.2c1-6.3-1.6-12.2-3.3-18.2
		c-1.2-4.1-1.6-8.1-0.3-11.8c1.6,2.4,3.7,4.7,5.3,6.8c3.3,4.1,6.7,8.2,10.1,12.2c3.4,4.2,6.8,8.4,10,12.8c1.4,1.9,2.8,3.9,4.3,5.9
		c1.1,1.5,2.5,2.9,3.7,4.4c-0.3,0.8-0.3,1.7,0.2,2.4c6.1,7.9,14.9-8.6,17.1-12.8c4.6-8.5,8.1-17.6,12.7-26.1
		c4.8-8.8,10.3-17.4,16.4-25.5c3.7-4.9,7.8-9.5,11.2-14.5c8,6.9,18.5,11.6,28.1,15.8c10.6,4.6,21.6,8.4,32.4,12.4l3.2,1.2
		c18.7,7,37.9,14.7,53.4,27.1c18.3,14.6,29.1,34.9,37.1,56c9.3,24.2,16.9,49.1,24.1,74c3.7,12.7,7.1,25.5,10.4,38.3
		c2.9,11.3,5.3,22.7,8.6,33.9c-6.7-0.2-14.4,2.3-20.2,3c-26.2,3.3-52.1,8.5-76.9,17.6c-3.1,1.1-3.9,4-3.3,6.4
		c-1.8-0.5-3.5-1-5.3-1.4c1.9-2.8,1-7.9,0.9-11l0-0.2c-0.2-4.2-0.6-8.4-0.9-12.6c-0.6-8-1.4-15.9-2.4-23.8l-0.3-2
		c-1.1-8.6-2-17.3-3.3-25.9l-0.1-1c0.6-2.2,1.3-4.4,2-6.5c2-5.8,4.7-11.2,7.1-16.8c0.3-0.7-0.7-1-1.2-0.6c-4.1,3.5-7.4,8-10,12.7
		c0-0.2-0.1-0.4-0.1-0.7l-0.3-1.4c-0.7-3.4-1.6-7-3.8-9.8c-0.2-0.3-0.7-0.4-0.9,0c-2.1,3.4-2.3,7.7-2.7,11.6
		c-0.4,4.4-0.4,8.8-0.3,13.2c0.1,8.6,0.8,17.2,1.3,25.8c0.5,8.4,1.5,16.8,2.7,25.1l0.2,1.6c0.6,4,1.1,8,1.9,12l0.2,1.1
		c0.4,2,0.7,4.7,1.6,7c-22.1-5.9-44.3-11.7-66.5-17.4c-16.1-4.1-32.1-8.1-48.2-12.2c-0.8-1.5-1.9-2.8-3.2-4
		c-4.3-4-10.1-5.8-15.4-2.7c-0.4,0.3-0.5,0.9,0,1.1c1,0.5,2,1.1,3,1.6l-9.6-2.5c-7.2-1.9-14.5-4.2-21.9-5.5
		c-13.6-6.4-28.2-11.1-42.5-15.7l-1.7-0.5c-7.3-2.4-14.9-5.1-22.5-6.4c-5.5-1-12.1,0.2-14.3,5.6c-2.8,1.8-5.5,3.9-8,5.9
		c-1.9,1.5-3.6,3.1-5.4,4.6l-0.3,0.3c-1.5,1.2-2.6,2-3,4c-0.2,1,0.5,2.4,1.8,2.2c4-0.4,7.2-4.8,9.9-7.5c2.1-2,4.2-4.1,6.1-6.4
		c1.1,0.6,2.6,0.5,3.3-0.8c3.7-6.6,13.7-2,19.2-0.5l7.9,2.2c4,1.1,7.9,2.3,11.9,3.4c10.9,3.2,21.7,6.7,32.7,9.6c-1,1-0.8,2.9,1,3.6
		c8.6,3.2,18,4.9,27,7.1c5.6,1.4,11.3,2.8,16.9,4.2c1,1.5,1.7,3.2,2,5.2c1.1,7.3-1,15.6-3,22.6l-0.3,1c-1.7,5.6-4.1,12.6-9.2,16.1
		c-1.2,0.9-2.8,1.5-4.4,1.6c-10-4.9-19.9-9.8-29.9-14.7c-1.8-0.9-3.6,0.3-4,1.8c-3.5-0.6-7-1.4-10.2-2.5c-5.4-1.7-9.6-5.1-14.6-7.4
		c-9.7-4.4-19.7,1-28.4,5.2l-2,0.9c-3.9,1.8-12,5.3-13.9,0.3c-1.8-4.8,3.9-9.9,7.6-12.1c4.4-2.6,9.6-4,14.5-5.1
		c2.8-0.7,5.7-1.2,8.6-1.6c3.3-0.4,6.7-0.4,9.9-1.4c1.6-0.5,1.8-2.9,0-3.3c-4.9-1.1-10.7,0.1-15.8,1.3l-2.7,0.6
		c-5.1,1.2-10.3,2.7-15,5.1c-3.4,1.7-7,4.4-9.3,7.6c-2-1.8-4.6-1.7-7.2-1.1l-1.4,0.4c-2.4,0.6-4.3,1.1-6.6,0.6
		c-0.3-1.6-0.6-3.2-1-4.8c-3.3-15.7-6.9-31.4-10.8-47c-6.8-26.9-14.7-53.5-23.7-79.8l-0.9-2.6c-2.1-6-3.7-12.6-7-18.1
		c-3.1-5.2-8.2-8.2-14.1-9.8c-6.8-1.8-13.9-2.8-20.8-4c-1.5-0.3-3.1-0.5-4.6-0.8c1.3-2.3,2.3-4.8,3.2-6.8l0.2-0.3
		c1.9-4.1,3.6-8.3,5.2-12.5l1.2-3.2c2.9-7.6,6-15.1,10.1-22.2c4.4-7.5,10.2-13.6,17.4-18.7c14.7-10.3,32.5-15.6,46.7-26.7
		c0.6-0.5-0.2-1.2-0.8-0.9c-9.6,4.6-20,7.8-30.1,11.6l-2,0.7c-7.9,3-16,6.3-22.8,11.1c-7.6,5.4-13.7,12.2-18.2,20.2
		c-4.5,7.9-7.3,16.7-10.5,25.2l-0.8,2.2c-1.3,3.4-2.6,6.7-4.1,10c-1.2,2.6-3.4,5.6-4.4,8.6c-2.8-0.5-5.5-0.9-8.3-1.4
		c-60-9.6-120.7-15.2-181.6-16.9c-2.4-0.1-3.6,2.1-3.3,4.1c5.8,33,11,66.2,16.7,99.2c2.5,14.4,5,28.8,7.6,43.3
		c1.3,7.3,2.8,14.6,4.1,21.9c1,5.9,1.7,11.9,3.5,17.6c1.5,5.2,3.9,10.2,7.8,14.1c4.2,4.3,10.1,6.3,16,7.3c15,2.5,30.4,3.5,45.5,5.1
		l80.5,8.8c-1.2,10.2-1.3,20.3-0.7,30.6l0.3,5.6c0.3,4.5,0.6,9.1,1.2,13.6c0.9,5.6,3.6,10.4,7.5,14.6c3.6,3.9,8.1,7.2,12.4,10.3
		c4.5,3.3,9.1,6.5,14.4,8.5l0.7,0.3c4.6,1.7,13.3,4.4,19.6,3.4c-0.8,4-2.4,8.2-1,12.1c0.7,1.8,3.1,2.7,4.7,1.2c3-3.1,3.2-7.1,4-11.1
		c0.7-4.2,1.4-8.3,2-12.5c1.1-8.1,2-16.2,2.2-24.4c0.3-8.4,0.2-16.8-0.3-25.1c-0.2-4.3-0.5-8.6-1.1-12.9c-0.2-1.8-0.5-3.6-0.8-5.5
		c-0.1-0.7-0.2-1.3-0.3-2l7.2,0.8c11.1,1.2,22.1,2.3,33.3,2.4c1.3,0,2.3-0.6,3-1.4c0.7,1.1,1.9,1.9,3.7,1.9
		c15.6-0.1,30.1-4.9,44.2-10.7c7.1-2.9,14.2-6,21.3-8.9c6.7-2.7,13.8-4.6,20.3-7.6l17.1,8.6c0.1,0.4,0.3,0.8,0.5,1.2
		c1.1,2.2,3.3,3.4,5.6,4.2c2.2,0.9,4.4,1.1,6.6,0.9c13,6.5,26,13,39,19.5l13,6.5c25.9,12.9,51.7,26,77.7,38.6l1.9,0.9
		c9,4.3,18.7,8.7,28.6,12c0.2,2.4,0.1,4.8-0.1,7.3l-0.1,0.6c-0.3,3-0.9,6.8,1.6,9c1.3,1.1,3.7,1.1,4.6-0.6c1.6-3.1,0.2-7.9-0.4-11.2
		c-0.2-1.2-0.4-2.4-0.7-3.6c11.4,3.3,23.2,4.8,34.9,3c11.3-1.8,20.1-8.6,27.2-17c7.5-8.8,12.8-19.1,15.6-30.1
		c3.2-12.5,3.5-25.5,3.4-38.4c-0.1-13.7-0.6-27.4-2.3-41c1.9-0.4,4-0.8,5.9-0.7c1,1.5,2.8,2.1,4.5,1.9c3.6,3.8-5.6,7.8-8.5,8.7
		c-1,0.3-0.9,1.9,0.3,1.9l0.7,0c4.6-0.2,9.3-1,11.9-5c2.1-3.2,1.5-7.1-1.1-9.7c-1.7-15.3-5.7-30.2-9.5-45.1
		c-3.7-14.6-7.8-29.2-12.1-43.6l-1.9-6.5c-6.8-22.7-14-45.6-23.4-67.3c-4.7-10.9-10.1-21.6-17.5-31c-6.9-8.8-15-16.4-24.3-22.9
		c-17.4-12-37.7-19.3-57.8-26.3l-0.9-0.3c-10.4-3.6-20.7-7.2-31-11.1c-9.1-3.4-17.8-7.8-26.8-11.3c0.3-0.5,0.6-1,0.8-1.5l0.2,0.1
		c0,0,0.1,0,0.1,0.1c0.9,0.6,2.2,0.3,3-0.4c2.1-1.9,1.4-4,0-6l-0.2-0.3c-1.7-2.3-3.3-4.8-4.9-7.2l-1-1.5c-2.7-4-5.5-8-9-11.3
		c-1.6-1.5-3.5-2.7-5.4-3.5c0.2-0.3-1.3-1-1.7-0.7c-6.1-2.1-13-1.7-19.6-1.1 M84.5,726.3l8.4,0.9c9.3,1,18.6,2,27.8,3l20.2,2.1
		c0.1,1.1,0.2,2.2,0.2,3c0.1,4.3,0.2,8.6,0.3,12.8c0.2,8.6,0,17.2-0.6,25.7c-0.6,8.3-1.3,16.6-2.5,24.9l-0.2,1.6l-0.1,0.9
		c-1,0.1-1.9,0.5-2.7,1.4c-1.7,1.9-7.9,0.1-10.3-0.8c-4-1.4-7.7-3.6-11.1-5.9c-3.4-2.2-6.4-4.8-9.3-7.6l-2.4-2.3
		c-2.4-2.3-4.7-4.7-6.2-7.5c-2-3.8-2.2-8.6-2.8-12.7c-0.7-5.1-1.6-10.3-2.5-15.4 M329.2,672.3l0.9,0.2c31.8,8.1,63.5,16.4,95.3,24.1
		c15.8,3.8,31.6,7.4,47.4,11.1l2.6,0.6c12.5,3,25.1,6.6,34.6,15.3c0.4,0.3,0.9-0.2,0.5-0.5c-10.3-10.5-24.9-14.9-38.9-18.7
		c-2.6-0.7-5.2-1.4-7.8-2.1c19.1-6.5,38.5-12.2,58.3-16.2c5.1-1,10.3-1.8,15.4-2.8c3.6-0.7,7-1.8,10.6-2.7l2.8-0.7l0,8.4
		c0,11.9,0,23.7-0.6,35.6l-0.1,2.2c-0.7,13.2-1.9,26.7-6.8,39.1c-4,10.1-10.3,19.6-18.6,27c-4.2,3.7-8.7,6.6-14.3,8.1
		c-5.2,1.3-10.6,1.5-15.9,1.1c-25.5-1.7-48.3-15-70.4-26c-36.3-18-72.6-35.9-108.9-53.9c1-0.6,1.9-1.4,2.7-2.2
		c4.9-4.8,7.4-11.4,9.1-17.8c1.8-6.8,2.9-14.1,3-21.1 M283,728.5c-0.3-0.2-0.7,0-0.7,0.4c-0.1,2.7,1.4,5.3,2.6,7.7l0.1,0.3
		c1.4,3,2.9,5.9,4.5,8.8c3.1,5.7,6.4,11.4,9.8,17c6.9,11.3,14.5,22.1,23.5,31.9c2,2.2,5.4-0.6,4.1-3c-6.3-11.5-13.7-22.4-21.2-33.2
		c-3.8-5.4-7.6-10.8-11.4-16.2c-1.6-2.2-3.2-4.5-4.9-6.7l-1-1.3 M-93.7,511.1c31.9,0.9,63.7,2.9,95.4,6c29.5,2.9,58.9,6.8,88.1,11.6
		c6.1,1,12.2,2.1,18.3,3.1l3.7,0.7c6.1,1.1,13.5,1.6,19,4.7c5.7,3.3,7.3,10.1,9.2,15.8c2.2,6.7,4.4,13.3,6.5,20
		c8.4,26.6,16.1,53.3,23,80.3c3.4,13.4,6.4,26.8,9.6,40.3c2.8,11.9,6,23.7,9.2,35.5c-0.4-0.3-0.9-0.5-1.5-0.6
		c-16.2-3.3-32.7-4.7-49.2-6.6l-1.6-0.2c-17-1.9-34-3.8-51-5.6L-27.7,704c-6.6-0.7-13.8-0.8-20.2-2.5c-11-2.9-13.6-14.7-15.4-24
		l-0.1-0.3c-5.6-28.3-10-56.8-15.2-85.2 M185.6,696.2c4.4-0.3,10.4-4.1,13.7-3.8c-1.7,2.8-2.5,6-1.5,9.4c2.8,9.5,15.4,4.6,21.5,1.7
		c5-2.4,9.8-5.3,15.3-6.4c6.3-1.3,10.5,1.1,15.8,3.9c4.3,2.3,9.1,3.9,13.9,4.7c2.6,0.4,5,0.5,7.5,0.3c0.1,0.1,0.3,0.2,0.5,0.3
		l1.3,0.7c-5.9,0.3-11.8,2-17.3,3.6c-5.7,1.6-11.2,3.6-16.7,5.6l-5.4,2c-13.4,4.9-27.3,9.6-41.8,9.5c-1,0-1.9,0.3-2.6,0.7
		 M210.1,666.5c-4.3-0.5-8.3,0-11.8,2.7c-4.2,3.2-7,8.6-12.9,9c-1.7,0.1-2.2,2.5-0.4,2.9c4.5,1.3,8.1-1,11.1-4l2-2
		c3-3,5.8-5.3,10.9-5.1c5.5,0.2,10.9,1.4,16.3,2c6.1,0.7,12.3,1.3,18.4,1.8c0.3,0,0.3-0.4,0.1-0.5l-6.9-1.6 M214.3,649.6l-0.7-0.1
		c-6.3-0.6-12-0.6-17.6,2.6l-1.1,0.6c-5.1,2.9-10.6,6.4-13.7,11.2c-0.5,0.8,0.3,1.7,1.2,1.5c6.1-1.4,10.5-5.7,15.6-8.8
		c5.7-3.6,11.7-3,18.2-2.4c6.3,0.5,12.6,1.3,18.9,2.3c5.9,0.9,11.8,2.4,17.7,2.9l0,0c0.7,0,1.1-1,0.4-1.3c-6-2.9-13-4.2-19.6-5.6
		 M23.7,590.3c0.6-2.8-3-4.1-4.6-1.9l-0.4,0.5c-3.6,4.7-8.7,10.6-8.5,16.5c-3.1,0.1-6.4,1.9-7.6,4.6c-0.6,1.3-0.8,2.7-0.6,4.3
		c-2.9,0.2-6,2-7.7,3.8c-2.9,2.9-3.1,7-1,10.4c4.5,7.4,14.4,10.1,22.8,10.7l0.3,0c8.6,0.6,21,0.4,26.9-6.7
		c5.7-6.8-0.6-12.4-7.1-15.4c1.7-1.5,2.6-3.6,1.7-5.8c-1.4-3.9-6.5-5.4-9.4-8.1c-3.5-3.3-5.8-7.9-4.9-12.6 M18.9,596.3
		c1,4,3.3,7.6,6.5,10.4c1.2,1.1,2.6,2.1,4.1,2.9l0.2,0.1c1.3,0.7,4.4,2,4.2,3.5c-0.2,1.6-5.4,4.1-6.8,4.1c-0.3,0-0.5,0.5-0.2,0.6
		c2.5,1.1,4.8,1.5,7.2,0.4c1.7,1.6,3.3,3.3,4.9,5c2.8,2.9,1.9,6-1.5,8.2c-5.4,3.5-13.5,3.4-19.7,3.2c-6.3-0.3-13-1.6-17.9-5.6
		l-0.2-0.2c-2.7-2.3-5.1-6.1-1-8.3c1.6-0.9,3.3-0.8,4.9-1.2c1.4,2.7,3.7,4.8,6.5,5.2c2.3,0.3,3.8-2.4,1.8-3.7l-0.5-0.3
		c-2.6-1.6-4.8-4-4.8-7.2c0-2.2,3.3-5,5.4-2.9l0.1,0.1c1.8,1.9,4.9-0.5,3.7-2.6l-0.1-0.1 M429.1,486.3c0-0.5-0.7-0.7-0.9-0.2
		c-4.1,6.9-6.2,15.3-8.4,22.9c-2.3,7.9-4.1,15.9-5.8,24c-3.3,16.3-5.1,32.6-5.2,49.3c0,2.4,4,3,4.4,0.6c2.6-16.2,5.2-32.4,7.8-48.6
		c1.3-8.1,2.9-16.3,4.4-24.4 M388.7,498.3c0.3-0.9-1.1-1.3-1.5-0.4c-8.2,19.2-11,41.1-5.7,61.4c0.8,3.1,5.6,1.8,5-1.3 M283,481.2
		c0-0.7-0.9-0.8-1.3-0.3c-3.9,5.2-5.5,12.2-12.3,14.9c-3.4,1.4-7.2,1.1-10.2,3.4c-2,1.5-3.5,3.9-2,6.2c0.5,0.7,1.8,1.1,2.5,0.3
		c1-1.2,1.5-2.6,2.8-3.5c1.8-1.2,4.3-1.3,6.5-1.9c2.7-0.8,5.1-2.1,7.1-4.1 M218.2,393.9c-0.4-0.2-0.8-0.1-1,0.3
		c-0.4,0.5-0.3,0.9,0.1,1.3c-0.6,1.2-1.3,4.1-1.4,4.5c-0.4,1.7-0.8,3.4-1.3,5.2c-0.9,3.5-1.7,7-2.6,10.4c-1,3.7-2.1,7.3-3.4,10.9
		c-0.1,0.2-0.2,0.5-0.3,0.7l-0.1,0.4l0-0.1c-0.3-0.4-0.8-0.1-0.7,0.3c0.1,0.4,0.1,0.8,0.2,1.1l-0.1,0.3c-0.8,2.2-1.4,4.5,0.1,6.4
		c0.6,0.7,1.2,1.1,2,1.3c1.3,4,2.9,8,4.6,11.8l0.5,1.1c2.5,5.5,5.2,11,9.2,15.7c4.4,5.1,10.4,8.6,14.2,14.3c1.8,2.6,3,5.4,4,8.3
		l0.4,1.1c0.7,2.1,1.5,4.1,3.6,5.3c0.7,0.4,1.6,0.3,2.2-0.3c4.2-4.3-0.2-12.2-2.7-16.3c-3.5-5.7-8.6-9.4-13.7-13.7
		c-5.5-4.7-9-10.9-12.4-17c-2.1-3.8-4.1-7.6-6.2-11.4c2.2-1.9,2.9-5.6,3.7-8.2l0.1-0.2c1.2-4.1,2.2-8.4,2.8-12.6
		c0.6-4.1,0.8-8.1,0.7-12.3l0-1 M210,413.4c0.5-0.6-0.3-1.4-1-1.2c-4.1,0.8-8.1,3.2-11.7,5.1l-0.4,0.2c-2.9,1.5-5.9,3.4-7.4,6.3
		c-1.7,3.2-1.5,6.8-1.3,10.3l0,0.3c0.3,4.1,0.3,8.5,1.2,12.5c0.5,2.1,2.4,2.7,4.1,2.2c2,6.1,7.6,10.5,11.8,15.3
		c5.2,6.1,4.3,14.3,3.7,21.7c-0.2,3,3.6,3.8,5.6,2.2l4.6-3.6c0.8-0.6,1.5-1.2,2.3-1.8c0.7-0.5,1.3-1.1,1.9-1.6l1-0.8
		c0.4-0.4,2.3-2.4,2.8-2.4c1.3-0.2,4.5,3.1,5.5,4.2l0.1,0.1c2,1.9,3.9,4,5.6,6.1c0.3,0.4,0.9,0.1,0.7-0.4c-1.5-3.1-3.3-6.1-5.4-8.9
		l-0.4-0.6c-1.4-1.8-3.3-5-5.8-5.5c-3-0.7-6.1,2.3-8.3,3.9l-0.1,0.1c-1,0.8-2.1,1.5-3.1,2.3c0.1-5.5-0.6-11-3.6-15.7
		c-2.1-3.3-5.2-5.8-7.9-8.6c-3-3.2-4.5-7.1-7.2-10.4c-0.3-0.4-0.8-0.7-1.3-0.7c-0.1-2.7-0.5-5.4-0.8-8l-0.1-0.8
		c-0.3-2.9-1.1-6.4,0.4-9c1.4-2.5,4.6-4.3,6.9-6l1.9-1.4 M342.2,383.1c1.2,0.7,2.4,1.5,3.4,2.6c3.3,3.3,5.6,7.5,7.9,11.4
		c1.2,2.1,2.4,4.3,3.6,6.4c0.5,0.9,1.1,1.9,1.6,2.8c0.3,0.4,1,1.3,1.4,1.8c-0.4,0.6-0.9,1.1-1.3,1.7c-0.2,0.2-11.9,12.5-16,17.2
		c-6.3,7.3-11.9,15.1-16.7,23.4c-4.7,8.1-8.3,16.7-12.6,25c-2.2,4.1-4.6,8.3-7.7,11.9c-0.1,0.1-0.2,0.3-0.4,0.4
		c-1.2-3.1-4.2-6.3-5.7-8.2l-0.1-0.2c-3.4-4.4-6.9-8.6-10.6-12.7c-3.3-3.8-6.7-7.5-10.2-11.1l-1.3-1.4c-2.4-2.5-5.5-6.3-9.1-8.1
		c0.4-0.7,0.8-1.3,1.3-1.9c3.3-4.2,8.1-7.2,12.7-9.9l3-1.8c11.4-6.6,22.6-13.6,32.4-22.2c5.2-4.6,10.4-9.3,14.8-14.7l1.6-1.9
		 M323.2,379.9c5.3,0.4,11.1,0.3,16,2c-4.4,4-8.5,8.2-12.8,12.3c-0.4-2.7-1.2-5.4-1.8-8.1"/>
	<path class="st3" d="M232.3,358.1c4.5-1.8,8.5-4.7,11.4-8.4c1-1.3,1.3-2.7,1.1-3.9c-0.2-1.4-1.1-2.7-2.3-3.5
		c-1.2-0.9-2.7-1.3-4.1-1.1c-1.3,0.2-2.5,0.8-3.5,2.2l-0.2,0.3c-1.7,2.3-4,4.1-6.6,5.3c-2.5,1.1-5.3,1.7-8.2,1.4
		c-5.5-0.6-9.3-3.4-13.3-7.3c-0.5-0.5-1-1-1.5-1.5c-0.3-0.5-0.8-0.8-1.2-0.9c-0.5-0.2-1.2-0.2-1.7,0c-0.5,0.2-1,0.5-1.4,1
		c-0.3,0.4-0.5,1-0.4,1.6c0.4,4,2.6,7.6,5.7,10.4c3.4,3.1,8,5.3,12.3,6C223.1,360.4,227.9,359.8,232.3,358.1z M216.1,296.4
		c-5,2.9-12.7,9.8-7.3,17.1c6.4,6.4,15.6-0.9,20.1-4.3c4.2-2.6,8.9,4.1,5,7.1c-32.7,23.2-46-19.1-20.4-23.3
		C216.4,292.4,217.4,295.4,216.1,296.4z M274.8,269.4c-0.6-6.6-11.1-8.1-12.1-1.6c-0.9,5.9,0.2,11.3,2.9,16.5c2.6,5,9.3,2.7,9.8-1.9
		C276,276.3,275.1,273.5,274.8,269.4z M194.6,266.4c-1.5-1.8-3.6-3.1-6.1-2.4c-7.9,2.2-5.6,13-2.8,18.3c1.5,2.9,6.4,3.6,8.6,1.1
		c3.6-4.1,5.3-12.3,0.7-16.3C194.9,266.9,194.8,266.6,194.6,266.4z M265.7,240.4l-1.3-0.2c-3.9-0.6-8.7-1.3-11.4,1.7
		c-1.5,1.6-2,4.5,0,6c3.4,2.7,7.2,1.6,11.4,1.9c3.4,0.2,6.7,0.7,9.9,1.6c7.2,2,13,5.6,19.2,9.5c0.8,0.5,1.6-0.5,1.2-1.2
		c-3.5-6.6-10.4-12.1-17.3-15.4C273.8,242.5,269.7,241.1,265.7,240.4z M201.8,237.4l-1,0.2c-10.4,2.1-24,6.3-29,16.1
		c-0.2,1.4,0,1.7,0.2,1.9l0.1,0.1c0.1,0.2,0.2,0.4,0.9,0.6c0.2,0,0.4-0.1,0.5-0.1c2.3-0.6,4.1-1.4,5.8-2.2l1.9-0.9
		c2.2-1,4.4-2,6.7-2.7c5-1.6,10.1-2.7,15.3-3.2c1.1-0.1,2.2-0.5,3.1-1.1c0.8-0.6,1.4-1.4,1.7-2.5c0.4-1.4,0.3-2.5-0.5-3.8
		c-0.6-1-1.4-1.6-2.4-2C204.1,237.3,202.9,237.2,201.8,237.4z"/>
	<path class="st3" d="M159,293.2c8.1,8,21.6,10.3,32.4,6c27.7-11.1,14.1-45.6-7.2-54.9c-2.7-0.6-6.2-2.1-9.5-2.5
		c-0.3-0.1-0.9,0.3-1.7-0.1C149.5,244.2,144.1,279.2,159,293.2z M248.3,295.3c9.1,11.5,26,15.1,39.8,9.7
		c27.3-10.3,17.6-40.9-1.1-52.9C247.7,237.9,231.4,274,248.3,295.3z M307.5,269.7C307.5,269.7,307.6,269.7,307.5,269.7
		c-0.1-0.1-0.2-0.1-0.4-0.2c0,0.1,0.1,0.2,0.1,0.4C307.4,269.8,307.4,269.7,307.5,269.7z M140.2,257.2c2.2,0,5.4,0.4,7.3,1.8
		c4.5-14.7,21.3-28.3,35.9-18.4c11.5,3.5,20,11.4,24.9,21.8c8.7-5,22.5-2.8,30.1,3.7c5-15.7,17.2-21.2,31.7-22
		c15.9-2.5,31.7,12.3,36.6,24.1c4.1-0.4,10.2-1.7,14.1,0.7c25.1-6.3,68.9-9.8,73.9-6.3c3.6,1.3,5.6,9.5,0.6,10
		c-4.4-0.6,0.5-6-3.9-6.6c-23.7-1.4-46.8,3.2-70.2,5.1c-2.1,2.7-8.9,3.6-12.5,2.5c5.7,20.1-6.6,33.7-25,37.8
		c-28.5,6.3-53.3-18.1-45.8-43.5c-8.6-4.1-18.6-3.9-28-1.8c15.7,55.4-77.4,52.9-62.9-5.4C137.2,265.5,135.1,258.1,140.2,257.2z"/>
	<rect x="-21" y="566" class="st4" width="84" height="91"/>
</g>
</svg>
