<?xml version="1.0" standalone="no"?>
<!DOCTYPE svg PUBLIC "-//W3C//DTD SVG 20010904//EN"
 "http://www.w3.org/TR/2001/REC-SVG-20010904/DTD/svg10.dtd">
<svg version="1.0" xmlns="http://www.w3.org/2000/svg"
 width="192.000000pt" height="192.000000pt" viewBox="0 0 192.000000 192.000000"
 preserveAspectRatio="xMidYMid meet">
<metadata>
Created by potrace 1.14, written by Peter Selinger 2001-2017
</metadata>
<g transform="translate(0.000000,192.000000) scale(0.100000,-0.100000)"
fill="#000000" stroke="none">
<path d="M920 1722 c-58 -29 -73 -73 -64 -193 6 -96 8 -103 39 -134 56 -55
125 -55 175 2 29 33 30 36 30 141 0 123 -16 163 -75 188 -45 18 -62 18 -105
-4z"/>
<path d="M380 1572 c-41 -42 -39 -76 9 -148 85 -127 142 -174 211 -174 67 0
121 58 105 112 -11 36 -116 178 -153 206 -23 18 -50 27 -87 30 -50 4 -57 2
-85 -26z"/>
<path d="M1442 1578 c-63 -36 -182 -190 -182 -238 0 -65 73 -104 150 -81 52
16 78 38 149 132 50 66 61 88 61 119 0 80 -92 115 -178 68z"/>
<path d="M825 1200 c-209 -33 -367 -137 -437 -286 -58 -123 -48 -295 23 -405
98 -154 272 -235 524 -246 353 -15 596 114 660 351 26 96 17 214 -23 299 -57
123 -193 224 -359 268 -90 24 -293 33 -388 19z m242 -255 c48 -20 71 -41 95
-88 44 -88 31 -221 -29 -287 -44 -49 -88 -64 -174 -58 -84 6 -130 34 -160 95
-42 87 -33 222 19 285 53 63 168 87 249 53z"/>
</g>
</svg>
