<svg width="146" height="46" viewBox="0 0 146 46" fill="none" xmlns="http://www.w3.org/2000/svg">
<path d="M88.7178 43.3222C88.6989 44.7615 89.5866 45.9118 90.7005 45.8915C91.8144 45.8712 92.7327 44.6879 92.7515 43.2486L92.7918 40.1827C92.8106 38.7434 91.923 37.593 90.8091 37.6134C89.6952 37.6337 88.7769 38.817 88.758 40.2563L88.7178 43.3222Z" fill="white"/>
<path d="M80.7035 39.5377C80.0045 40.7961 80.2407 42.2297 81.2311 42.7399C82.2215 43.2501 83.591 42.6436 84.29 41.3853L85.7789 38.7048C86.4779 37.4465 86.2417 36.0129 85.2513 35.5027C84.2609 34.9925 82.8914 35.599 82.1924 36.8573L80.7035 39.5377Z" fill="white"/>
<path d="M101.02 39.4335C101.756 40.6705 101.563 42.1106 100.588 42.6499C99.6132 43.1892 98.2263 42.6237 97.4903 41.3866L95.9225 38.7515C95.1865 37.5145 95.3801 36.0745 96.3549 35.5352C97.3297 34.9958 98.7166 35.5614 99.4526 36.7984L101.02 39.4335Z" fill="white"/>
<path d="M52.8738 43.3024C52.8549 44.7417 53.7426 45.892 54.8565 45.8717C55.9704 45.8514 56.8886 44.6681 56.9075 43.2288L56.9477 40.1629C56.9666 38.7236 56.079 37.5733 54.9651 37.5936C53.8512 37.6139 52.9329 38.7972 52.914 40.2365L52.8738 43.3024Z" fill="white"/>
<path d="M44.8595 39.518C44.1605 40.7763 44.3968 42.2099 45.3872 42.7201C46.3775 43.2303 47.747 42.6238 48.446 41.3655L49.935 38.685C50.6339 37.4267 50.3977 35.9931 49.4073 35.4829C48.4169 34.9727 47.0474 35.5792 46.3485 36.8375L44.8595 39.518Z" fill="white"/>
<path d="M65.1764 39.4137C65.9124 40.6508 65.7188 42.0908 64.744 42.6301C63.7692 43.1695 62.3823 42.6039 61.6463 41.3669L60.0785 38.7318C59.3425 37.4947 59.5361 36.0547 60.5109 35.5154C61.4857 34.9761 62.8726 35.5416 63.6086 36.7787L65.1764 39.4137Z" fill="white"/>
<path d="M137.056 25.5134V33.1171C135.982 33.5604 134.954 33.7821 133.972 33.7821C131.572 33.7821 129.536 32.7698 127.865 30.7451C126.207 28.7204 125.378 26.2449 125.378 23.3187C125.378 20.156 126.379 17.4885 128.382 15.316C130.385 13.1435 132.845 12.0573 135.763 12.0573C137.314 12.0573 138.8 12.4045 140.219 13.0991C141.638 13.7937 142.752 14.7248 143.561 15.8923C144.914 17.8284 145.59 20.6364 145.59 24.3163V31.5875C145.59 35.5334 144.582 38.733 142.566 41.1863C140.564 43.6544 137.951 44.8884 134.728 44.8884C133.747 44.8884 132.507 44.615 131.008 44.0682V36.531C131.976 37.1221 132.958 37.4177 133.952 37.4177C135.292 37.4177 136.326 36.9226 137.056 35.9325C137.785 34.9571 138.15 33.5531 138.15 31.7205V23.4074C138.15 21.0871 137.308 19.927 135.623 19.927C134.907 19.927 134.277 20.2373 133.734 20.858C133.203 21.464 132.938 22.1659 132.938 22.964C132.938 23.8064 133.19 24.5084 133.694 25.07C134.211 25.6316 134.848 25.9124 135.604 25.9124C136.108 25.9124 136.592 25.7794 137.056 25.5134Z" fill="white"/>
<path d="M13.455 24.4493L20.8357 24.1389C20.6235 27.3312 19.5558 29.9544 17.6328 32.0086C15.7097 34.0629 13.3688 35.0901 10.6102 35.0901C7.69243 35.0901 5.2256 33.9595 3.20968 31.6983C1.20703 29.4372 0.205704 26.6661 0.205704 23.3852C0.205704 20.2669 1.22029 17.5993 3.24947 15.3825C5.27865 13.1657 7.71234 12.0573 10.5505 12.0573C13.0306 12.0573 15.219 12.9292 17.1155 14.6731C19.0121 16.417 20.1924 18.6412 20.6566 21.3457L13.1168 21.6561C12.467 20.7103 11.6447 20.2373 10.65 20.2373C9.80119 20.2373 9.10491 20.5477 8.56114 21.1684C8.01737 21.7891 7.74549 22.5724 7.74549 23.5182C7.74549 24.4789 8.03064 25.2843 8.60094 25.9346C9.18449 26.5848 9.90729 26.91 10.7694 26.91C12.0293 26.91 12.9245 26.0897 13.455 24.4493Z" fill="white"/>
<path d="M31.5187 4.36487V13.609C32.7787 12.5893 34.0386 12.0794 35.2985 12.0794C37.2084 12.0794 38.7203 12.8479 39.8343 14.3849C40.9617 15.9219 41.5253 17.9984 41.5253 20.6142V34.6245H34.085V22.9419C34.085 21.996 33.9922 21.3605 33.8065 21.0354C33.6341 20.7103 33.2893 20.5477 32.772 20.5477C31.9365 20.5477 31.5187 21.2349 31.5187 22.6093V34.6245H24.0784V4.36487H31.5187Z" fill="white"/>
<path d="M44.6485 23.4955C44.6484 23.5106 44.6485 23.5248 44.6485 23.5398C44.6485 26.7172 45.6697 29.4365 47.7122 31.6977C49.7546 33.9441 52.2148 35.0673 55.0928 35.0673C57.9707 35.0673 60.4243 33.9441 62.4535 31.6977C64.496 29.4513 65.5172 26.732 65.5172 23.5398C65.5172 23.5246 65.5172 23.5102 65.5172 23.4955H61.9396C61.9413 23.5484 61.9424 23.6014 61.943 23.6544C61.9429 24.6123 61.768 25.5609 61.4282 26.4459C61.0884 27.3309 60.5904 28.135 59.9626 28.8122C59.3348 29.4895 58.5895 30.0267 57.7693 30.3931C56.9491 30.7595 56.0701 30.948 55.1824 30.9478C53.3902 30.9473 51.6715 30.1787 50.4043 28.811C49.1371 27.4433 48.4252 25.5884 48.4251 23.6544C48.428 23.6014 48.4314 23.5484 48.4353 23.4955H44.6485Z" fill="white"/>
<path d="M80.437 23.4189C80.4369 23.434 80.437 23.4482 80.437 23.4631C80.437 26.6406 81.4582 29.3599 83.5006 31.621C85.5431 33.8674 88.0033 34.9906 90.8813 34.9906C93.7593 34.9906 96.2129 33.8674 98.242 31.621C100.284 29.3747 101.306 26.6554 101.306 23.4631C101.306 23.448 101.306 23.4336 101.306 23.4189H97.7281C97.7298 23.4718 97.7309 23.5248 97.7315 23.5778C97.7314 24.5357 97.5565 25.4843 97.2167 26.3693C96.8769 27.2542 96.3789 28.0583 95.7511 28.7356C95.1233 29.4129 94.378 29.9501 93.5578 30.3165C92.7376 30.6829 91.8586 30.8714 90.9709 30.8711C89.1787 30.8707 87.46 30.1021 86.1928 28.7344C84.9256 27.3667 84.2137 25.5118 84.2136 23.5778C84.2164 23.5248 84.2198 23.4718 84.2238 23.4189H80.437Z" fill="white"/>
<path d="M79.5028 12.3011V21.1684C78.9855 20.8433 78.5147 20.6807 78.0903 20.6807C76.7375 20.6807 76.0611 21.8334 76.0611 24.1389V34.6245H68.6208V22.5428C68.6208 19.3506 69.4033 16.8086 70.9683 14.917C72.5333 13.0105 74.6221 12.0573 77.2349 12.0573C77.8184 12.0573 78.5744 12.1385 79.5028 12.3011Z" fill="white"/>
<path d="M122.135 34.6245H114.695V22.1438C114.695 20.8728 114.224 20.2373 113.283 20.2373C112.354 20.2373 111.89 20.8728 111.89 22.1438V34.6245H104.45V22.299C104.45 19.4171 105.305 16.9934 107.016 15.0278C108.727 13.0474 110.822 12.0573 113.302 12.0573C116.141 12.0573 118.415 13.2026 120.126 15.4933C121.466 17.2816 122.135 19.7718 122.135 22.964V34.6245Z" fill="white"/>
<path d="M49.3277 1.14886L49.5596 10.5135Z" fill="white"/>
<path d="M60.2333 9.44665L60.5889 0.200562Z" fill="white"/>
</svg>
