<svg width="146" height="45" viewBox="0 0 146 45" fill="none" xmlns="http://www.w3.org/2000/svg">
<path d="M89.5121 5.94432C89.4932 4.50502 90.3809 3.35473 91.4948 3.37506C92.6087 3.39539 93.527 4.57864 93.5458 6.01793L93.5861 9.08389C93.605 10.5232 92.7173 11.6735 91.6034 11.6532C90.4895 11.6328 89.5712 10.4496 89.5523 9.01027L89.5121 5.94432Z" fill="black"/>
<path d="M81.4978 9.72879C80.7988 8.47048 81.035 7.03684 82.0254 6.52667C83.0158 6.01649 84.3853 6.62296 85.0843 7.88128L86.5732 10.5617C87.2722 11.82 87.036 13.2537 86.0456 13.7638C85.0552 14.274 83.6857 13.6675 82.9867 12.4092L81.4978 9.72879Z" fill="black"/>
<path d="M101.815 9.83302C102.551 8.596 102.357 7.15597 101.382 6.61663C100.407 6.0773 99.0206 6.64289 98.2846 7.87991L96.7168 10.515C95.9808 11.752 96.1744 13.192 97.1492 13.7314C98.124 14.2707 99.5109 13.7051 100.247 12.4681L101.815 9.83302Z" fill="black"/>
<path d="M52.6681 5.96409C52.6492 4.5248 53.5369 3.3745 54.6508 3.39483C55.7647 3.41516 56.6829 4.59842 56.7018 6.03771L56.742 9.10366C56.7609 10.543 55.8733 11.6933 54.7594 11.6729C53.6455 11.6526 52.7272 10.4693 52.7083 9.03005L52.6681 5.96409Z" fill="black"/>
<path d="M44.6538 9.74857C43.9548 8.49026 44.1911 7.05662 45.1815 6.54644C46.1718 6.03626 47.5413 6.64274 48.2403 7.90105L49.7293 10.5815C50.4282 11.8398 50.192 13.2734 49.2016 13.7836C48.2112 14.2938 46.8417 13.6873 46.1428 12.429L44.6538 9.74857Z" fill="black"/>
<path d="M64.9707 9.8528C65.7067 8.61577 65.5131 7.17574 64.5383 6.63641C63.5635 6.09707 62.1766 6.66266 61.4406 7.89969L59.8728 10.5348C59.1368 11.7718 59.3304 13.2118 60.3052 13.7512C61.28 14.2905 62.6669 13.7249 63.4029 12.4879L64.9707 9.8528Z" fill="black"/>
<path d="M136.85 25.3128V32.9165C135.776 33.3599 134.748 33.5815 133.767 33.5815C131.366 33.5815 129.33 32.5692 127.659 30.5445C126.001 28.5198 125.172 26.0443 125.172 23.1181C125.172 19.9555 126.174 17.2879 128.176 15.1154C130.179 12.9429 132.639 11.8567 135.557 11.8567C137.109 11.8567 138.594 12.204 140.013 12.8986C141.432 13.5932 142.546 14.5243 143.355 15.6918C144.708 17.6278 145.385 20.4358 145.385 24.1157V31.3869C145.385 35.3329 144.377 38.5325 142.361 40.9858C140.358 43.4538 137.745 44.6879 134.523 44.6879C133.541 44.6879 132.301 44.4144 130.802 43.8676V36.3304C131.771 36.9216 132.752 37.2172 133.747 37.2172C135.086 37.2172 136.121 36.7221 136.85 35.7319C137.58 34.7565 137.944 33.3525 137.944 31.5199V23.2068C137.944 20.8866 137.102 19.7264 135.418 19.7264C134.702 19.7264 134.072 20.0368 133.528 20.6575C132.997 21.2634 132.732 21.9654 132.732 22.7634C132.732 23.6058 132.984 24.3078 133.488 24.8695C134.005 25.431 134.642 25.7118 135.398 25.7118C135.902 25.7118 136.386 25.5788 136.85 25.3128Z" fill="black"/>
<path d="M13.2493 24.2487L20.63 23.9384C20.4178 27.1306 19.3501 29.7538 17.4271 31.8081C15.504 33.8623 13.1631 34.8895 10.4045 34.8895C7.48673 34.8895 5.01989 33.7589 3.00398 31.4978C1.00133 29.2366 0 26.4656 0 23.1847C0 20.0663 1.01459 17.3987 3.04377 15.1819C5.07294 12.9651 7.50663 11.8567 10.3448 11.8567C12.8249 11.8567 15.0133 12.7286 16.9098 14.4725C18.8064 16.2164 19.9867 18.4406 20.4509 21.1452L12.9111 21.4555C12.2613 20.5097 11.439 20.0368 10.4443 20.0368C9.59549 20.0368 8.8992 20.3471 8.35544 20.9678C7.81167 21.5885 7.53979 22.3718 7.53979 23.3177C7.53979 24.2783 7.82494 25.0837 8.39524 25.734C8.97878 26.3843 9.70159 26.7094 10.5637 26.7094C11.8236 26.7094 12.7188 25.8892 13.2493 24.2487Z" fill="black"/>
<path d="M31.313 4.16431V13.4085C32.573 12.3887 33.8329 11.8789 35.0928 11.8789C37.0026 11.8789 38.5146 12.6474 39.6286 14.1844C40.756 15.7214 41.3196 17.7978 41.3196 20.4136V34.424H33.8793V22.7413C33.8793 21.7955 33.7865 21.16 33.6008 20.8348C33.4284 20.5097 33.0836 20.3471 32.5663 20.3471C31.7308 20.3471 31.313 21.0343 31.313 22.4088V34.424H23.8727V4.16431H31.313Z" fill="black"/>
<path d="M79.2971 12.1005V20.9678C78.7798 20.6427 78.309 20.4801 77.8846 20.4801C76.5318 20.4801 75.8554 21.6329 75.8554 23.9384V34.424H68.4151V22.3423C68.4151 19.15 69.1976 16.6081 70.7626 14.7164C72.3276 12.8099 74.4164 11.8567 77.0292 11.8567C77.6127 11.8567 78.3687 11.938 79.2971 12.1005Z" fill="black"/>
<path d="M121.93 34.424H114.489V21.9432C114.489 20.6723 114.019 20.0368 113.077 20.0368C112.149 20.0368 111.684 20.6723 111.684 21.9432V34.424H104.244V22.0984C104.244 19.2166 105.099 16.7928 106.81 14.8272C108.521 12.8469 110.617 11.8567 113.097 11.8567C115.935 11.8567 118.21 13.002 119.92 15.2928C121.26 17.081 121.93 19.5712 121.93 22.7634V34.424Z" fill="black"/>
<path d="M49.1219 0.948303L49.3539 10.3129Z" fill="black"/>
<path d="M60.0276 9.24609L60.3832 0Z" fill="black"/>
<path d="M65.2 25.28C65.2 26.9334 64.9467 28.4134 64.44 29.72C63.9333 31 63.2133 32.08 62.28 32.96C61.3733 33.84 60.28 34.5067 59 34.96C57.72 35.4134 56.2933 35.64 54.72 35.64C53.1467 35.64 51.72 35.4 50.44 34.92C49.16 34.44 48.0533 33.76 47.12 32.88C46.2133 31.9734 45.5067 30.88 45 29.6C44.4933 28.32 44.24 26.88 44.24 25.28C44.24 23.7067 44.4933 22.28 45 21C45.5067 19.72 46.2133 18.64 47.12 17.76C48.0533 16.8534 49.16 16.16 50.44 15.68C51.72 15.2 53.1467 14.96 54.72 14.96C56.2933 14.96 57.72 15.2134 59 15.72C60.28 16.2 61.3733 16.8934 62.28 17.8C63.2133 18.68 63.9333 19.76 64.44 21.04C64.9467 22.32 65.2 23.7334 65.2 25.28ZM51.2 25.28C51.2 26.9067 51.5067 28.16 52.12 29.04C52.76 29.8934 53.64 30.32 54.76 30.32C55.88 30.32 56.7333 29.88 57.32 29C57.9333 28.12 58.24 26.88 58.24 25.28C58.24 23.68 57.9333 22.4534 57.32 21.6C56.7067 20.72 55.84 20.28 54.72 20.28C53.6 20.28 52.7333 20.72 52.12 21.6C51.5067 22.4534 51.2 23.68 51.2 25.28Z" fill="black"/>
<path d="M101.96 25.32C101.96 26.9733 101.707 28.4533 101.2 29.76C100.693 31.04 99.9733 32.12 99.04 33C98.1333 33.88 97.04 34.5467 95.76 35C94.48 35.4533 93.0533 35.68 91.48 35.68C89.9067 35.68 88.48 35.44 87.2 34.96C85.92 34.48 84.8133 33.8 83.88 32.92C82.9733 32.0133 82.2667 30.92 81.76 29.64C81.2533 28.36 81 26.92 81 25.32C81 23.7467 81.2533 22.32 81.76 21.04C82.2667 19.76 82.9733 18.68 83.88 17.8C84.8133 16.8933 85.92 16.2 87.2 15.72C88.48 15.24 89.9067 15 91.48 15C93.0533 15 94.48 15.2533 95.76 15.76C97.04 16.24 98.1333 16.9333 99.04 17.84C99.9733 18.72 100.693 19.8 101.2 21.08C101.707 22.36 101.96 23.7733 101.96 25.32ZM87.96 25.32C87.96 26.9467 88.2667 28.2 88.88 29.08C89.52 29.9333 90.4 30.36 91.52 30.36C92.64 30.36 93.4933 29.92 94.08 29.04C94.6933 28.16 95 26.92 95 25.32C95 23.72 94.6933 22.4933 94.08 21.64C93.4667 20.76 92.6 20.32 91.48 20.32C90.36 20.32 89.4933 20.76 88.88 21.64C88.2667 22.4933 87.96 23.72 87.96 25.32Z" fill="black"/>
</svg>
