<svg width="147" height="38" viewBox="0 0 147 38" fill="none" xmlns="http://www.w3.org/2000/svg">
<path d="M11.4 15C9.96 15 8.73333 15.4667 7.72 16.4C6.70667 17.3067 6.2 18.6533 6.2 20.44C6.2 22.2267 6.68 23.56 7.64 24.44C8.62667 25.32 9.86667 25.76 11.36 25.76C12.2133 25.76 12.96 25.6533 13.6 25.44C14.2667 25.2 14.8267 24.96 15.28 24.72C15.7333 25.0667 16.08 25.44 16.32 25.84C16.5867 26.2133 16.72 26.68 16.72 27.24C16.72 28.2533 16.1867 29.0667 15.12 29.68C14.0533 30.2933 12.5733 30.6 10.68 30.6C9.08 30.6 7.61333 30.3867 6.28 29.96C4.97333 29.5333 3.85333 28.8933 2.92 28.04C1.98667 27.1867 1.26667 26.1333 0.76 24.88C0.253333 23.6 0 22.12 0 20.44C0 18.7067 0.28 17.2 0.84 15.92C1.4 14.64 2.16 13.5733 3.12 12.72C4.08 11.8667 5.2 11.2267 6.48 10.8C7.76 10.3733 9.10667 10.16 10.52 10.16C12.36 10.16 13.8 10.4933 14.84 11.16C15.9067 11.8267 16.44 12.6667 16.44 13.68C16.44 14.16 16.32 14.6 16.08 15C15.8667 15.4 15.6 15.7467 15.28 16.04C14.8 15.7733 14.2267 15.5333 13.56 15.32C12.92 15.1067 12.2 15 11.4 15Z" fill="#231815"/>
<path d="M26.5722 29.96C26.3055 30.04 25.9322 30.1067 25.4522 30.16C24.9722 30.24 24.4389 30.28 23.8522 30.28C22.6522 30.28 21.7855 30.0933 21.2522 29.72C20.7189 29.32 20.4522 28.56 20.4522 27.44V3.96C20.7455 3.88 21.1322 3.8 21.6122 3.72C22.0922 3.64 22.6255 3.6 23.2122 3.6C24.4122 3.6 25.2655 3.8 25.7722 4.2C26.3055 4.6 26.5722 5.36 26.5722 6.48V11.08C27.1322 10.8133 27.7589 10.6 28.4522 10.44C29.1722 10.2533 29.9455 10.16 30.7722 10.16C33.3322 10.16 35.3322 10.8133 36.7722 12.12C38.2389 13.4 38.9722 15.3333 38.9722 17.92V29.96C38.7055 30.04 38.3322 30.1067 37.8522 30.16C37.3722 30.24 36.8389 30.28 36.2522 30.28C35.0522 30.28 34.1855 30.0933 33.6522 29.72C33.1189 29.32 32.8522 28.56 32.8522 27.44V18.28C32.8522 17.08 32.5455 16.2267 31.9322 15.72C31.3455 15.2133 30.5855 14.96 29.6522 14.96C29.0389 14.96 28.4789 15.0533 27.9722 15.24C27.4655 15.4 26.9989 15.6 26.5722 15.84V29.96Z" fill="#231815"/>
<path d="M63.0963 20.36C63.0963 21.9333 62.8563 23.36 62.3763 24.64C61.8963 25.8933 61.2029 26.96 60.2962 27.84C59.4162 28.72 58.3496 29.4 57.0962 29.88C55.8429 30.36 54.4429 30.6 52.8963 30.6C51.3496 30.6 49.9362 30.3733 48.6562 29.92C47.4029 29.44 46.3229 28.76 45.4163 27.88C44.5363 27 43.8563 25.9333 43.3763 24.68C42.8963 23.4 42.6562 21.96 42.6562 20.36C42.6562 18.8133 42.8963 17.4133 43.3763 16.16C43.8829 14.88 44.5762 13.8 45.4562 12.92C46.3629 12.04 47.4429 11.36 48.6963 10.88C49.9763 10.4 51.3763 10.16 52.8963 10.16C54.4163 10.16 55.8029 10.4 57.0563 10.88C58.3096 11.36 59.3763 12.0533 60.2563 12.96C61.1629 13.84 61.8563 14.9067 62.3363 16.16C62.8429 17.4133 63.0963 18.8133 63.0963 20.36ZM52.8963 14.96C51.6429 14.96 50.6696 15.4267 49.9762 16.36C49.2829 17.2933 48.9362 18.6267 48.9362 20.36C48.9362 22.1467 49.2696 23.5067 49.9362 24.44C50.6296 25.3467 51.6163 25.8 52.8963 25.8C54.1763 25.8 55.1496 25.3333 55.8162 24.4C56.5096 23.4667 56.8563 22.12 56.8563 20.36C56.8563 18.6533 56.5096 17.3333 55.8162 16.4C55.1229 15.44 54.1496 14.96 52.8963 14.96Z" fill="#231815"/>
<path d="M72.8594 29.96C72.5927 30.04 72.2194 30.1067 71.7394 30.16C71.2594 30.24 70.726 30.28 70.1394 30.28C68.9394 30.28 68.0727 30.0933 67.5394 29.72C67.006 29.32 66.7394 28.56 66.7394 27.44V15.24C66.7394 14.4933 66.926 13.8533 67.2994 13.32C67.6727 12.7867 68.1927 12.32 68.8594 11.92C69.7394 11.3867 70.7927 10.9733 72.0194 10.68C73.2727 10.36 74.5794 10.2 75.9394 10.2C78.7127 10.2 80.0994 11.1333 80.0994 13C80.0994 13.4533 80.0327 13.8667 79.8994 14.24C79.766 14.6133 79.6194 14.9333 79.4594 15.2C78.846 15.0667 78.0994 15 77.2194 15C76.446 15 75.6727 15.0933 74.8994 15.28C74.126 15.4667 73.446 15.72 72.8594 16.04V29.96Z" fill="#231815"/>
<path d="M101.846 20.36C101.846 21.9333 101.606 23.36 101.126 24.64C100.646 25.8933 99.9529 26.96 99.0462 27.84C98.1662 28.72 97.0996 29.4 95.8463 29.88C94.5929 30.36 93.1929 30.6 91.6462 30.6C90.0996 30.6 88.6862 30.3733 87.4062 29.92C86.1529 29.44 85.0729 28.76 84.1663 27.88C83.2863 27 82.6063 25.9333 82.1263 24.68C81.6463 23.4 81.4062 21.96 81.4062 20.36C81.4062 18.8133 81.6463 17.4133 82.1263 16.16C82.6329 14.88 83.3263 13.8 84.2063 12.92C85.1129 12.04 86.1929 11.36 87.4463 10.88C88.7263 10.4 90.1262 10.16 91.6462 10.16C93.1662 10.16 94.5529 10.4 95.8063 10.88C97.0596 11.36 98.1262 12.0533 99.0062 12.96C99.9129 13.84 100.606 14.9067 101.086 16.16C101.593 17.4133 101.846 18.8133 101.846 20.36ZM91.6462 14.96C90.3929 14.96 89.4196 15.4267 88.7262 16.36C88.0329 17.2933 87.6862 18.6267 87.6862 20.36C87.6862 22.1467 88.0196 23.5067 88.6862 24.44C89.3796 25.3467 90.3662 25.8 91.6462 25.8C92.9262 25.8 93.8996 25.3333 94.5663 24.4C95.2596 23.4667 95.6063 22.12 95.6063 20.36C95.6063 18.6533 95.2596 17.3333 94.5663 16.4C93.8729 15.44 92.8996 14.96 91.6462 14.96Z" fill="#231815"/>
<path d="M117.929 17.72C117.929 16.7867 117.649 16.0933 117.089 15.64C116.529 15.1867 115.783 14.96 114.849 14.96C114.209 14.96 113.623 15.04 113.089 15.2C112.556 15.36 112.063 15.56 111.609 15.8V29.96C111.343 30.04 110.969 30.1067 110.489 30.16C110.009 30.24 109.476 30.28 108.889 30.28C107.689 30.28 106.823 30.0933 106.289 29.72C105.756 29.32 105.489 28.56 105.489 27.44V15.08C105.489 14.3867 105.636 13.8267 105.929 13.4C106.223 12.9733 106.636 12.5733 107.169 12.2C108.023 11.5867 109.116 11.0933 110.449 10.72C111.809 10.3467 113.303 10.16 114.929 10.16C117.836 10.16 120.076 10.8 121.649 12.08C123.249 13.36 124.049 15.1867 124.049 17.56V29.96C123.756 30.04 123.369 30.1067 122.889 30.16C122.409 30.24 121.876 30.28 121.289 30.28C120.089 30.28 119.223 30.0933 118.689 29.72C118.183 29.32 117.929 28.56 117.929 27.44V17.72Z" fill="#231815"/>
<path d="M140.655 28.44C140.122 28.68 139.522 28.88 138.855 29.04C138.189 29.1733 137.429 29.24 136.575 29.24C135.375 29.24 134.229 29.08 133.135 28.76C132.069 28.4133 131.135 27.8667 130.335 27.12C129.535 26.3733 128.895 25.4 128.415 24.2C127.935 23 127.695 21.5333 127.695 19.8C127.695 18.2267 127.935 16.84 128.415 15.64C128.895 14.44 129.575 13.44 130.455 12.64C131.362 11.8133 132.429 11.2 133.655 10.8C134.909 10.3733 136.295 10.16 137.815 10.16C139.309 10.16 140.669 10.36 141.895 10.76C143.149 11.1333 144.122 11.5467 144.815 12C145.322 12.3467 145.722 12.7467 146.015 13.2C146.309 13.6267 146.455 14.1733 146.455 14.84V29.92C146.455 31.3067 146.202 32.5067 145.695 33.52C145.189 34.5333 144.482 35.36 143.575 36C142.695 36.6667 141.655 37.16 140.455 37.48C139.255 37.8 137.962 37.96 136.575 37.96C135.135 37.96 133.882 37.84 132.815 37.6C131.775 37.36 130.949 37.0533 130.335 36.68C129.429 36.04 128.975 35.1867 128.975 34.12C128.975 33.56 129.095 33.04 129.335 32.56C129.575 32.1067 129.842 31.7733 130.135 31.56C130.882 31.9867 131.735 32.3467 132.695 32.64C133.682 32.96 134.722 33.12 135.815 33.12C137.309 33.12 138.482 32.8533 139.335 32.32C140.215 31.8133 140.655 30.96 140.655 29.76V28.44ZM137.655 24.64C138.295 24.64 138.842 24.56 139.295 24.4C139.775 24.24 140.202 24.0267 140.575 23.76V15.56C140.255 15.4267 139.895 15.2933 139.495 15.16C139.122 15.0267 138.642 14.96 138.055 14.96C136.775 14.96 135.735 15.36 134.935 16.16C134.162 16.9333 133.775 18.16 133.775 19.84C133.775 20.7467 133.869 21.5067 134.055 22.12C134.269 22.7333 134.549 23.2267 134.895 23.6C135.242 23.9733 135.642 24.24 136.095 24.4C136.575 24.56 137.095 24.64 137.655 24.64Z" fill="#231815"/>
<path d="M52.68 8C54.0607 8 55.18 6.20914 55.18 4C55.18 1.79086 54.0607 0 52.68 0C51.2993 0 50.18 1.79086 50.18 4C50.18 6.20914 51.2993 8 52.68 8Z" fill="#231815"/>
<path d="M44.7114 9.8623C46.045 9.50495 46.6627 7.48541 46.0909 5.35155C45.5191 3.21768 43.9745 1.77754 42.6408 2.13489C41.3071 2.49225 40.6895 4.51178 41.2613 6.64564C41.833 8.77951 43.3777 10.2197 44.7114 9.8623Z" fill="#231815"/>
<path d="M63.8663 6.66555C64.7567 4.5117 64.4979 2.36028 63.2882 1.86022C62.0786 1.36017 60.3762 2.70084 59.4858 4.85469C58.5954 7.00855 58.8542 9.15997 60.0638 9.66002C61.2735 10.1601 62.9759 8.81941 63.8663 6.66555Z" fill="#231815"/>
<path d="M91.68 8C93.0607 8 94.18 6.20914 94.18 4C94.18 1.79086 93.0607 0 91.68 0C90.2993 0 89.18 1.79086 89.18 4C89.18 6.20914 90.2993 8 91.68 8Z" fill="#231815"/>
<path d="M83.7125 9.86836C85.0461 9.511 85.6638 7.49147 85.092 5.35761C84.5202 3.22374 82.9756 1.7836 81.6419 2.14095C80.3082 2.49831 79.6906 4.51784 80.2624 6.6517C80.8341 8.78557 82.3788 10.2257 83.7125 9.86836Z" fill="#231815"/>
<path d="M102.876 6.67384C103.766 4.51999 103.507 2.36857 102.298 1.86851C101.088 1.36846 99.3857 2.70912 98.4953 4.86298C97.6049 7.01683 97.8637 9.16825 99.0733 9.66831C100.283 10.1684 101.985 8.8277 102.876 6.67384Z" fill="#231815"/>
</svg>
